<?xml version="1.0" standalone="yes"?><svg version="1.1" xmlns = 'http://www.w3.org/2000/svg'><defs><font id='TheFont' horiz-adv-x="1000">
<font-face font-family="The Font" descent="-956" cap-height="1446" units-per-em="2048" bbox="-268,-467,2396,1949" x-height="1053" ascent="3238" />
<missing-glyph horiz-adv-x="1024" d="" /><glyph horiz-adv-x="1167" d="" unicode="∂" />
<glyph horiz-adv-x="1311" d="" unicode="∆" />
<glyph horiz-adv-x="1167" d="M 86 821 L 86 874 L 274 874 C 298 1022 349 1144 429 1241 C 509 1337 621 1386 766 1386 C 816 1386 871 1379 929 1367 C 987 1354 1035 1338 1073 1319 L 1053 1264 C 1016 1280 971 1295 917 1308 C 863 1320 812 1327 764 1327 C 640 1327 545 1284 478 1198 C 410 1112 367 1004 348 874 L 846 874 L 846 821 L 340 821 C 338 797 336 774 335 750 C 334 726 334 702 334 678 C 334 657 334 636 335 616 C 336 596 337 576 338 557 L 846 557 L 846 504 L 344 504 C 361 369 401 258 465 170 C 528 82 619 39 737 39 C 794 39 852 45 910 57 C 968 69 1016 83 1055 100 L 1073 45 C 1033 25 980 10 916 -2 C 852 -14 792 -20 737 -20 C 597 -20 488 28 411 126 C 334 223 286 349 268 504 L 86 504 L 86 557 L 264 557 C 262 574 260 592 260 612 C 260 631 260 650 260 670 C 260 695 260 720 262 746 C 263 771 265 796 268 821 L 86 821 Z" unicode="€" />
<glyph horiz-adv-x="1597" d="" unicode="∏" />
<glyph horiz-adv-x="1518" d="" unicode="∑" />
<glyph horiz-adv-x="1167" d="" unicode="−" />
<glyph horiz-adv-x="1167" d="M 82 598 L 1085 598 L 1085 545 L 82 545 L 82 598 Z" unicode="–" />
<glyph horiz-adv-x="2048" d="M 82 598 L 1966 598 L 1966 545 L 82 545 L 82 598 Z" unicode="—" />
<glyph horiz-adv-x="385" d="M 143 954 L 55 954 L 279 1446 L 342 1446 L 143 954 Z" unicode="‘" />
<glyph horiz-adv-x="385" d="M 242 1446 L 330 1446 L 106 954 L 43 954 L 242 1446 Z" unicode="’" />
<glyph horiz-adv-x="385" d="M 248 219 L 336 219 L 113 -272 L 49 -272 L 248 219 Z" unicode="‚" />
<glyph horiz-adv-x="700" d="M 143 954 L 55 954 L 279 1446 L 342 1446 L 143 954 Z M 461 954 L 373 954 L 596 1446 L 659 1446 L 461 954 Z" unicode="“" />
<glyph horiz-adv-x="700" d="M 242 1446 L 330 1446 L 106 954 L 43 954 L 242 1446 Z M 559 1446 L 645 1446 L 424 954 L 360 954 L 559 1446 Z" unicode="”" />
<glyph horiz-adv-x="700" d="M 248 219 L 336 219 L 113 -272 L 49 -272 L 248 219 Z M 563 219 L 651 219 L 430 -272 L 367 -272 L 563 219 Z" unicode="„" />
<glyph horiz-adv-x="469" d="" unicode=" " />
<glyph horiz-adv-x="510" d="M 233 1446 L 322 1446 L 322 1257 L 303 475 L 254 475 L 233 1257 L 233 1446 Z M 233 219 L 322 219 L 322 0 L 233 0 L 233 219 Z" unicode="!" />
<glyph horiz-adv-x="588" d="M 143 1446 L 231 1446 L 209 1280 L 166 954 L 115 954 L 133 1280 L 143 1446 Z M 436 1446 L 524 1446 L 502 1280 L 461 954 L 408 954 L 426 1280 L 436 1446 Z" unicode="&#x22;" />
<glyph horiz-adv-x="1511" d="M 319 -82 L 397 348 L 102 348 L 102 406 L 408 406 L 516 995 L 207 995 L 207 1053 L 526 1053 L 598 1446 L 657 1446 L 586 1053 L 1081 1053 L 1153 1446 L 1212 1446 L 1141 1053 L 1436 1053 L 1436 995 L 1130 995 L 1026 406 L 1331 406 L 1331 348 L 1016 348 L 938 -82 L 874 -82 L 952 348 L 461 348 L 383 -82 L 319 -82 Z M 575 995 L 471 406 L 963 406 L 1071 995 L 575 995 Z" unicode="#" />
<glyph horiz-adv-x="1167" d="M 918 1255 L 899 1194 C 858 1209 812 1223 761 1235 C 709 1247 655 1253 598 1253 C 504 1253 426 1233 362 1193 C 298 1153 266 1090 266 1006 C 266 922 297 865 360 834 C 423 802 499 774 588 750 C 698 720 792 682 870 638 C 948 594 987 520 987 418 C 987 329 954 255 890 195 C 825 135 733 99 614 86 L 614 -199 L 555 -199 L 555 82 L 522 82 C 467 82 408 87 346 98 C 283 109 228 127 180 152 L 203 213 C 249 188 301 170 360 158 C 419 146 475 141 528 141 C 645 141 739 164 809 212 C 879 260 915 325 915 408 C 915 491 879 552 808 590 C 736 628 654 659 561 684 C 471 707 388 739 310 779 C 232 819 193 892 193 999 C 193 1096 227 1170 295 1222 C 363 1274 450 1303 555 1311 L 555 1528 L 614 1528 L 614 1313 C 675 1312 730 1305 780 1293 C 830 1281 876 1268 918 1255 Z" unicode="$" />
<glyph horiz-adv-x="1743" d="M 416 1376 C 532 1376 614 1338 662 1264 C 710 1189 735 1101 735 999 C 735 875 708 777 654 707 C 600 637 520 602 416 602 C 295 602 211 643 165 726 C 119 809 96 899 96 997 C 96 1122 123 1216 177 1280 C 231 1344 311 1376 416 1376 Z M 416 1325 C 324 1325 257 1295 217 1236 C 176 1177 156 1097 156 997 C 156 919 173 842 209 766 C 244 690 313 653 416 653 C 508 653 575 685 615 751 C 655 817 676 899 676 999 C 676 1082 657 1157 620 1224 C 582 1291 514 1325 416 1325 Z M 1325 762 C 1441 762 1524 724 1572 650 C 1620 575 1645 487 1645 385 C 1645 260 1617 163 1563 93 C 1509 23 1429 -12 1325 -12 C 1204 -12 1121 29 1075 112 C 1029 194 1006 285 1006 383 C 1006 508 1033 602 1087 666 C 1141 730 1220 762 1325 762 Z M 1325 711 C 1233 711 1167 681 1126 622 C 1085 563 1065 483 1065 383 C 1065 304 1082 227 1118 152 C 1153 76 1222 39 1325 39 C 1416 39 1482 71 1523 137 C 1564 202 1585 285 1585 385 C 1585 468 1566 543 1529 610 C 1492 677 1424 711 1325 711 Z M 1233 1364 L 1292 1364 L 516 0 L 457 0 L 1233 1364 Z" unicode="%" />
<glyph horiz-adv-x="1399" d="M 1319 41 L 1309 -18 C 1251 -4 1198 20 1149 56 C 1099 91 1042 143 977 213 C 909 138 836 80 758 39 C 679 -2 591 -23 494 -23 C 366 -23 264 11 188 80 C 112 148 74 244 74 367 C 74 487 109 579 180 643 C 250 707 342 762 455 809 C 411 857 372 908 339 961 C 305 1013 289 1075 289 1145 C 289 1237 320 1314 383 1376 C 445 1437 527 1468 627 1468 C 706 1468 777 1443 839 1394 C 901 1345 932 1274 932 1182 C 932 1080 895 1001 823 945 C 751 889 661 839 555 795 C 620 718 686 641 754 564 C 821 487 895 403 977 311 C 1025 369 1072 436 1118 512 C 1164 588 1210 669 1255 756 L 1325 741 C 1277 652 1227 567 1177 485 C 1127 403 1074 330 1020 264 C 1080 200 1132 151 1178 117 C 1223 83 1270 58 1319 41 Z M 500 35 C 585 35 663 54 734 93 C 805 131 872 186 936 256 C 860 338 785 422 711 508 C 636 593 562 679 489 766 C 385 724 302 673 240 614 C 178 555 147 475 147 373 C 147 266 179 183 243 124 C 307 64 393 35 500 35 Z M 360 1149 C 360 1093 375 1039 406 989 C 437 938 475 886 520 834 C 622 878 705 924 769 970 C 832 1016 864 1084 864 1176 C 864 1253 840 1312 792 1353 C 744 1394 689 1415 627 1415 C 548 1415 484 1389 434 1338 C 384 1287 360 1224 360 1149 Z" unicode="&#x26;" />
<glyph horiz-adv-x="291" d="M 143 1446 L 231 1446 L 209 1280 L 166 954 L 115 954 L 133 1280 L 143 1446 Z" unicode="'" />
<glyph horiz-adv-x="635" d="M 606 -326 L 553 -326 C 462 -258 368 -140 271 27 C 173 195 125 389 125 608 C 125 827 173 1020 271 1186 C 368 1352 462 1468 553 1536 L 606 1536 L 606 1518 C 513 1447 421 1329 331 1164 C 240 999 195 814 195 608 C 195 402 240 216 331 49 C 421 -118 513 -237 606 -307 L 606 -326 Z" unicode="(" />
<glyph horiz-adv-x="635" d="M 82 -326 L 29 -326 L 29 -307 C 121 -237 213 -118 304 49 C 394 216 440 402 440 608 C 440 814 394 999 304 1164 C 213 1329 121 1447 29 1518 L 29 1536 L 82 1536 C 172 1468 266 1352 364 1186 C 461 1020 510 827 510 608 C 510 389 461 195 364 27 C 266 -140 172 -258 82 -326 Z" unicode=")" />
<glyph horiz-adv-x="815" d="M 127 1237 L 170 1223 L 389 1124 L 397 1133 L 377 1368 L 377 1415 L 444 1415 L 444 1368 L 424 1133 L 430 1124 L 647 1221 L 692 1235 L 715 1167 L 670 1151 L 436 1100 L 434 1092 L 592 913 L 621 877 L 563 834 L 535 872 L 414 1077 L 403 1077 L 281 872 L 254 834 L 197 877 L 225 915 L 383 1094 L 381 1102 L 147 1153 L 104 1169 L 127 1237 Z" unicode="*" />
<glyph horiz-adv-x="1167" d="M 549 1141 L 618 1141 L 618 602 L 1153 602 L 1153 541 L 618 541 L 618 0 L 549 0 L 549 541 L 14 541 L 14 602 L 549 602 L 549 1141 Z" unicode="+" />
<glyph horiz-adv-x="381" d="M 244 219 L 334 219 L 94 -274 L 35 -274 L 244 219 Z" unicode="," />
<glyph horiz-adv-x="629" d="M 94 606 L 535 606 L 535 541 L 94 541 L 94 606 Z" unicode="-" />
<glyph horiz-adv-x="313" d="M 113 219 L 201 219 L 201 0 L 113 0 L 113 219 Z" unicode="." />
<glyph horiz-adv-x="813" d="M 745 1446 L 813 1446 L 63 -236 L 0 -236 L 745 1446 Z" unicode="/" />
<glyph horiz-adv-x="1167" d="M 584 1384 C 762 1384 886 1314 958 1175 C 1029 1035 1065 877 1065 700 C 1065 452 1022 271 938 156 C 854 41 736 -16 584 -16 C 400 -16 274 58 205 207 C 136 356 102 520 102 700 C 102 936 143 1109 227 1219 C 311 1329 430 1384 584 1384 Z M 584 1325 C 441 1325 337 1269 272 1158 C 206 1046 174 894 174 700 C 174 548 201 400 256 257 C 310 114 420 43 584 43 C 726 43 829 101 895 219 C 960 337 993 497 993 700 C 993 850 964 991 908 1125 C 852 1258 744 1325 584 1325 Z" unicode="0" />
<glyph horiz-adv-x="1167" d="M 598 0 L 598 1253 L 604 1294 L 598 1294 L 246 1149 L 246 1217 L 621 1364 L 678 1364 L 670 1245 L 670 0 L 598 0 Z" unicode="1" />
<glyph horiz-adv-x="1167" d="M 1008 61 L 1008 0 L 145 0 L 145 63 L 731 668 C 775 712 816 763 854 819 C 892 875 911 939 911 1012 C 911 1093 882 1165 825 1229 C 768 1293 686 1325 580 1325 C 486 1325 408 1300 346 1250 C 283 1200 235 1139 201 1067 L 141 1090 C 173 1164 225 1231 298 1292 C 371 1353 467 1384 586 1384 C 716 1384 815 1346 882 1270 C 949 1194 983 1108 983 1012 C 983 927 961 854 918 793 C 874 731 829 677 782 629 L 227 61 L 1008 61 Z" unicode="2" />
<glyph horiz-adv-x="1167" d="M 137 1167 C 187 1220 246 1269 315 1315 C 384 1361 469 1384 571 1384 C 679 1384 770 1355 845 1298 C 920 1241 958 1165 958 1069 C 958 987 930 920 876 866 C 822 812 756 777 680 760 L 680 752 C 768 745 845 713 910 657 C 975 600 1008 522 1008 422 C 1008 252 930 131 776 59 C 622 -12 442 -49 238 -49 C 220 -49 205 -48 192 -47 C 179 -45 170 -43 164 -41 L 160 18 C 170 17 181 16 194 15 C 207 14 220 14 233 14 C 432 14 599 46 734 111 C 868 175 936 280 936 424 C 936 519 901 590 832 638 C 762 685 689 709 612 709 C 597 709 572 706 538 701 C 503 696 450 688 379 676 L 367 735 L 522 758 C 635 774 724 810 789 865 C 854 919 887 985 887 1063 C 887 1140 856 1203 796 1252 C 735 1300 659 1325 567 1325 C 487 1325 419 1307 361 1271 C 303 1235 245 1189 188 1135 L 137 1167 Z" unicode="3" />
<glyph horiz-adv-x="1167" d="M 750 1364 L 819 1364 L 819 391 L 1133 391 L 1133 332 L 819 332 L 819 0 L 748 0 L 748 332 L 84 332 L 84 406 L 750 1364 Z M 748 1264 L 143 391 L 748 391 L 748 1184 L 754 1262 L 748 1264 Z" unicode="4" />
<glyph horiz-adv-x="1167" d="M 264 14 C 468 14 634 48 764 118 C 893 188 958 311 958 489 C 958 581 933 662 884 734 C 835 806 751 842 633 842 C 573 842 515 829 459 804 C 402 779 328 730 238 657 L 190 678 L 238 1364 L 989 1364 L 989 1303 L 299 1303 L 258 729 C 350 801 423 848 477 870 C 531 892 585 903 639 903 C 776 903 875 863 937 783 C 999 703 1030 606 1030 494 C 1030 286 955 143 807 66 C 658 -10 478 -49 268 -49 C 249 -49 234 -48 222 -47 C 210 -45 201 -43 195 -41 L 190 18 C 200 17 212 16 225 15 C 238 14 251 14 264 14 Z" unicode="5" />
<glyph horiz-adv-x="1167" d="M 801 1417 C 830 1417 854 1416 874 1415 C 893 1413 906 1411 913 1409 L 915 1350 C 904 1350 887 1351 864 1352 C 841 1353 820 1354 801 1354 C 719 1354 644 1341 575 1316 C 506 1290 447 1251 397 1198 C 343 1138 299 1063 267 971 C 234 879 213 775 203 659 C 249 716 309 765 384 807 C 458 849 538 870 623 870 C 749 870 853 831 933 754 C 1013 677 1053 572 1053 438 C 1053 290 1009 177 923 100 C 837 22 729 -16 600 -16 C 534 -16 474 -6 420 14 C 365 34 318 62 279 98 C 231 142 193 199 167 269 C 140 338 127 428 127 539 C 127 680 145 813 181 937 C 217 1061 272 1164 346 1245 C 402 1302 468 1345 545 1374 C 621 1402 707 1417 801 1417 Z M 205 594 C 203 579 201 564 200 550 C 199 535 199 519 199 502 C 199 425 208 357 227 297 C 246 237 278 187 322 147 C 355 114 396 88 444 70 C 492 52 546 43 606 43 C 714 43 804 76 875 144 C 945 211 981 308 981 436 C 981 551 947 642 880 709 C 812 775 722 809 610 809 C 525 809 446 787 374 743 C 301 699 245 649 205 594 Z" unicode="6" />
<glyph horiz-adv-x="1167" d="M 154 1364 L 1057 1364 L 1057 1307 C 1007 1255 903 1116 744 891 C 584 666 482 369 436 0 L 358 0 C 398 336 495 620 649 853 C 802 1085 911 1235 975 1303 L 154 1303 L 154 1364 Z" unicode="7" />
<glyph horiz-adv-x="1167" d="M 434 715 L 434 723 C 380 733 319 762 252 810 C 185 858 152 933 152 1036 C 152 1123 189 1203 265 1275 C 341 1347 447 1384 584 1384 C 720 1384 826 1347 902 1275 C 978 1203 1016 1123 1016 1036 C 1016 933 982 858 915 810 C 847 762 787 733 733 723 L 733 715 C 809 704 882 671 952 616 C 1022 560 1057 481 1057 377 C 1057 240 1010 140 916 78 C 822 15 711 -16 584 -16 C 456 -16 346 15 252 78 C 158 140 111 240 111 377 C 111 481 145 560 215 616 C 285 671 358 704 434 715 Z M 584 43 C 702 43 798 71 872 127 C 946 183 983 267 983 377 C 983 460 952 533 890 595 C 828 657 726 688 584 688 C 441 688 339 657 277 595 C 215 533 184 460 184 377 C 184 267 221 183 295 127 C 369 71 465 43 584 43 Z M 223 1032 C 223 956 252 889 311 833 C 370 776 461 748 584 748 C 706 748 796 776 856 833 C 916 889 946 956 946 1032 C 946 1106 914 1174 851 1234 C 787 1294 698 1325 584 1325 C 468 1325 379 1294 317 1234 C 254 1174 223 1106 223 1032 Z" unicode="8" />
<glyph horiz-adv-x="1167" d="M 365 -49 C 335 -49 310 -48 291 -47 C 271 -45 258 -43 252 -41 L 250 18 C 260 17 277 16 301 15 C 324 14 345 14 365 14 C 446 14 521 26 590 52 C 658 77 718 116 768 170 C 822 229 865 304 898 396 C 930 488 952 592 963 709 C 917 651 856 602 782 560 C 707 518 627 498 543 498 C 416 498 313 536 233 614 C 153 691 113 796 113 930 C 113 1078 156 1190 242 1268 C 328 1345 435 1384 565 1384 C 630 1384 690 1374 745 1354 C 799 1334 847 1306 887 1270 C 935 1225 972 1168 998 1099 C 1024 1029 1038 939 1038 829 C 1038 687 1020 554 984 430 C 948 306 893 203 819 123 C 763 65 696 22 620 -6 C 543 -34 458 -49 365 -49 Z M 961 774 C 963 788 964 803 965 818 C 966 832 967 848 967 866 C 967 942 957 1010 938 1070 C 919 1130 888 1180 844 1221 C 810 1253 769 1279 721 1297 C 673 1315 619 1325 559 1325 C 450 1325 360 1291 290 1224 C 219 1156 184 1059 184 932 C 184 816 217 725 285 659 C 353 592 443 559 555 559 C 639 559 718 581 791 625 C 864 669 921 719 961 774 Z" unicode="9" />
<glyph horiz-adv-x="436" d="M 174 219 L 262 219 L 262 0 L 174 0 L 174 219 Z M 174 1053 L 262 1053 L 262 834 L 174 834 L 174 1053 Z" unicode=":" />
<glyph horiz-adv-x="467" d="M 260 219 L 350 219 L 111 -274 L 51 -274 L 260 219 Z M 174 1053 L 262 1053 L 262 834 L 174 834 L 174 1053 Z" unicode=";" />
<glyph horiz-adv-x="1167" d="M 57 596 L 1110 1090 L 1110 1016 L 285 637 L 139 575 L 139 563 L 285 506 L 1110 129 L 1110 55 L 57 545 L 57 596 Z" unicode="&#x3C;" />
<glyph horiz-adv-x="1167" d="M 57 373 L 1110 373 L 1110 311 L 57 311 L 57 373 Z M 57 829 L 1110 829 L 1110 766 L 57 766 L 57 829 Z" unicode="=" />
<glyph horiz-adv-x="1167" d="M 57 1090 L 1110 596 L 1110 545 L 57 55 L 57 129 L 883 506 L 1028 563 L 1028 575 L 883 637 L 57 1016 L 57 1090 Z" unicode="&#x3E;" />
<glyph horiz-adv-x="897" d="M 147 1249 L 104 1284 C 140 1332 192 1374 260 1409 C 328 1444 403 1462 483 1462 C 575 1462 654 1435 722 1382 C 789 1328 823 1252 823 1153 C 823 1081 804 1021 767 971 C 729 921 673 862 598 793 C 560 757 521 717 482 674 C 443 630 424 564 424 475 L 360 475 C 360 560 375 625 406 670 C 436 715 483 767 547 825 C 612 886 663 939 701 983 C 739 1027 758 1081 758 1147 C 758 1232 729 1296 672 1339 C 614 1381 550 1403 479 1403 C 413 1403 351 1388 292 1360 C 233 1332 185 1295 147 1249 Z M 352 219 L 440 219 L 440 0 L 352 0 L 352 219 Z" unicode="?" />
<glyph horiz-adv-x="2091" d="M 1438 1010 L 1501 1010 L 1290 324 C 1287 314 1285 305 1284 297 C 1282 289 1282 280 1282 272 C 1282 227 1296 191 1324 165 C 1352 138 1390 125 1438 125 C 1536 125 1640 181 1749 293 C 1858 405 1913 555 1913 741 C 1913 930 1843 1090 1705 1220 C 1566 1350 1384 1415 1159 1415 C 909 1415 687 1331 495 1163 C 303 995 207 774 207 498 C 207 216 300 6 487 -133 C 673 -272 861 -342 1051 -342 C 1155 -342 1266 -326 1382 -296 C 1498 -265 1585 -233 1642 -201 L 1663 -244 C 1605 -278 1516 -311 1396 -345 C 1276 -378 1161 -395 1049 -395 C 847 -395 645 -320 444 -172 C 243 -23 143 199 143 496 C 143 789 246 1024 452 1202 C 658 1379 894 1468 1161 1468 C 1403 1468 1598 1398 1747 1258 C 1895 1118 1970 947 1970 743 C 1970 539 1908 377 1784 256 C 1660 134 1539 74 1423 74 C 1367 74 1320 89 1282 121 C 1244 153 1226 202 1229 270 C 1177 204 1122 155 1063 123 C 1004 91 945 76 885 76 C 809 76 741 104 681 161 C 620 217 590 306 590 428 C 590 603 649 749 769 865 C 888 981 1003 1040 1114 1040 C 1186 1040 1246 1017 1292 971 C 1338 925 1366 873 1376 815 L 1438 1010 Z M 897 133 C 953 133 1009 149 1065 182 C 1121 214 1177 264 1231 332 L 1354 739 C 1344 801 1319 857 1277 907 C 1235 957 1180 983 1112 983 C 1018 983 919 931 814 828 C 709 724 657 593 657 434 C 657 330 681 253 729 205 C 777 157 833 133 897 133 Z" unicode="@" />
<glyph horiz-adv-x="1237" d="M 1083 0 L 954 381 L 274 381 L 143 0 L 74 0 L 575 1446 L 664 1446 L 1159 0 L 1083 0 Z M 936 440 L 639 1307 L 621 1372 L 612 1372 L 594 1307 L 295 440 L 936 440 Z" unicode="A" />
<glyph horiz-adv-x="1337" d="M 205 1446 L 686 1446 C 796 1446 902 1420 1004 1368 C 1106 1316 1157 1225 1157 1096 C 1157 1017 1133 948 1087 890 C 1040 832 978 794 901 778 L 901 770 C 981 759 1056 724 1126 664 C 1196 604 1231 520 1231 412 C 1231 246 1178 136 1074 82 C 970 27 842 0 692 0 L 205 0 L 205 1446 Z M 276 735 L 276 59 L 711 59 C 827 59 930 82 1020 130 C 1110 177 1155 272 1155 414 C 1155 505 1119 581 1047 643 C 975 704 882 735 768 735 L 276 735 Z M 276 1386 L 276 795 L 748 795 C 848 795 929 823 989 879 C 1049 935 1079 1005 1079 1090 C 1079 1187 1039 1261 961 1311 C 882 1361 788 1386 678 1386 L 276 1386 Z" unicode="B" />
<glyph horiz-adv-x="1343" d="M 1200 150 L 1217 86 C 1169 55 1107 30 1033 10 C 958 -10 872 -20 774 -20 C 563 -20 401 49 287 188 C 173 326 117 503 117 717 C 117 920 174 1096 290 1245 C 406 1393 571 1468 786 1468 C 881 1468 965 1458 1037 1438 C 1109 1418 1169 1392 1217 1362 L 1200 1296 C 1152 1326 1093 1353 1025 1375 C 956 1397 876 1409 784 1409 C 589 1409 441 1340 341 1204 C 240 1068 190 906 190 719 C 190 532 238 372 336 239 C 434 105 580 39 776 39 C 870 39 952 49 1022 70 C 1092 91 1152 118 1200 150 Z" unicode="C" />
<glyph horiz-adv-x="1489" d="M 205 1446 L 647 1446 C 846 1446 1015 1390 1153 1280 C 1291 1169 1360 987 1360 733 C 1360 465 1290 276 1151 166 C 1012 55 844 0 647 0 L 205 0 L 205 1446 Z M 653 1386 L 276 1386 L 276 59 L 653 59 C 841 59 994 114 1111 225 C 1227 336 1286 505 1286 733 C 1286 945 1228 1107 1112 1219 C 996 1330 843 1386 653 1386 Z" unicode="D" />
<glyph horiz-adv-x="1307" d="M 205 1446 L 1147 1446 L 1147 1386 L 276 1386 L 276 784 L 1055 784 L 1055 725 L 276 725 L 276 59 L 1167 59 L 1167 0 L 205 0 L 205 1446 Z" unicode="E" />
<glyph horiz-adv-x="1176" d="M 205 1446 L 1098 1446 L 1098 1386 L 276 1386 L 276 784 L 1008 784 L 1008 725 L 276 725 L 276 0 L 205 0 L 205 1446 Z" unicode="F" />
<glyph horiz-adv-x="1448" d="M 1255 1382 L 1239 1317 C 1188 1344 1125 1366 1050 1383 C 975 1400 899 1409 823 1409 C 623 1409 468 1343 357 1211 C 245 1079 190 915 190 721 C 190 542 240 384 340 246 C 440 108 597 39 809 39 C 874 39 945 46 1023 60 C 1100 74 1165 95 1219 125 L 1219 637 L 786 637 L 786 694 L 1284 694 L 1284 90 C 1234 56 1161 30 1065 10 C 969 -10 883 -20 807 -20 C 571 -20 397 55 285 206 C 173 356 117 527 117 719 C 117 929 179 1106 304 1251 C 429 1395 603 1468 825 1468 C 903 1468 982 1460 1062 1446 C 1142 1431 1206 1410 1255 1382 Z" unicode="G" />
<glyph horiz-adv-x="1446" d="M 205 1446 L 276 1446 L 276 762 L 1169 762 L 1169 1446 L 1241 1446 L 1241 0 L 1169 0 L 1169 705 L 276 705 L 276 0 L 205 0 L 205 1446 Z" unicode="H" />
<glyph horiz-adv-x="481" d="M 205 1446 L 276 1446 L 276 0 L 205 0 L 205 1446 Z" unicode="I" />
<glyph horiz-adv-x="973" d="M 76 84 L 92 152 C 130 120 178 93 235 71 C 291 49 347 39 401 39 C 511 39 592 70 642 134 C 692 197 717 275 717 367 L 717 1446 L 786 1446 L 786 356 C 786 248 754 158 691 87 C 627 15 531 -20 403 -20 C 343 -20 283 -10 224 10 C 165 30 116 54 76 84 Z" unicode="J" />
<glyph horiz-adv-x="1331" d="M 205 1446 L 276 1446 L 276 535 L 1159 1446 L 1249 1446 L 702 885 L 1329 0 L 1239 0 L 653 834 L 276 451 L 276 0 L 205 0 L 205 1446 Z" unicode="K" />
<glyph horiz-adv-x="1061" d="M 205 1446 L 276 1446 L 276 59 L 1044 59 L 1044 0 L 205 0 L 205 1446 Z" unicode="L" />
<glyph horiz-adv-x="1741" d="M 205 1446 L 328 1446 L 868 96 L 877 96 L 1415 1446 L 1534 1446 L 1534 0 L 1464 0 L 1464 1264 L 1466 1380 L 1460 1380 L 907 0 L 831 0 L 281 1380 L 272 1380 L 274 1264 L 274 0 L 205 0 L 205 1446 Z" unicode="M" />
<glyph horiz-adv-x="1470" d="M 205 0 L 205 1446 L 307 1446 L 1137 184 L 1196 68 L 1204 68 L 1196 195 L 1196 1446 L 1266 1446 L 1266 0 L 1165 0 L 334 1262 L 274 1376 L 266 1376 L 274 1249 L 274 0 L 205 0 Z" unicode="N" />
<glyph horiz-adv-x="1542" d="M 770 1468 C 953 1468 1108 1406 1235 1282 C 1361 1158 1425 973 1425 725 C 1425 479 1361 293 1234 168 C 1107 42 952 -20 770 -20 C 585 -20 430 42 305 168 C 179 293 117 479 117 725 C 117 971 180 1157 306 1281 C 432 1405 587 1468 770 1468 Z M 770 1409 C 598 1409 459 1349 351 1230 C 243 1111 190 943 190 725 C 190 512 243 344 351 222 C 459 100 598 39 770 39 C 943 39 1083 98 1191 217 C 1298 335 1352 505 1352 725 C 1352 939 1298 1107 1191 1228 C 1083 1348 943 1409 770 1409 Z" unicode="O" />
<glyph horiz-adv-x="1278" d="M 205 1446 L 711 1446 C 806 1446 885 1434 947 1412 C 1009 1390 1059 1359 1096 1319 C 1130 1282 1155 1238 1172 1188 C 1189 1138 1198 1084 1198 1026 C 1198 962 1188 902 1168 848 C 1148 794 1119 748 1081 711 C 1045 675 998 647 941 627 C 884 607 807 598 711 598 L 276 598 L 276 0 L 205 0 L 205 1446 Z M 276 1386 L 276 657 L 717 657 C 797 657 862 665 910 682 C 958 699 997 723 1028 754 C 1060 785 1084 824 1100 870 C 1116 916 1124 968 1124 1026 C 1124 1076 1117 1122 1103 1165 C 1089 1208 1068 1246 1040 1278 C 1008 1312 967 1338 915 1357 C 863 1376 797 1386 717 1386 L 276 1386 Z" unicode="P" />
<glyph horiz-adv-x="1542" d="M 1264 -127 L 1102 66 C 1054 37 1001 15 945 1 C 888 -12 830 -20 770 -20 C 580 -20 424 42 301 168 C 178 293 117 479 117 725 C 117 971 180 1157 306 1281 C 432 1405 587 1468 770 1468 C 953 1468 1108 1406 1235 1282 C 1361 1158 1425 973 1425 725 C 1425 579 1400 453 1351 348 C 1302 242 1237 160 1157 100 L 1333 -109 L 1264 -127 Z M 770 1409 C 598 1409 459 1349 351 1230 C 243 1111 190 943 190 725 C 190 512 243 344 351 222 C 459 100 598 39 770 39 C 825 39 877 45 927 57 C 977 69 1023 87 1065 111 L 731 512 L 782 549 L 1118 147 C 1190 202 1247 279 1289 377 C 1331 475 1352 591 1352 725 C 1352 939 1298 1107 1191 1228 C 1083 1348 943 1409 770 1409 Z" unicode="Q" />
<glyph horiz-adv-x="1362" d="M 205 1446 L 737 1446 C 831 1446 908 1434 969 1412 C 1030 1390 1079 1359 1116 1321 C 1150 1284 1176 1241 1193 1192 C 1210 1142 1219 1089 1219 1032 C 1219 914 1187 820 1124 752 C 1061 684 974 643 864 629 L 1278 0 L 1196 0 L 788 618 L 276 618 L 276 0 L 205 0 L 205 1446 Z M 276 1386 L 276 678 L 766 678 C 876 678 967 705 1039 759 C 1111 813 1147 904 1147 1032 C 1147 1147 1112 1235 1042 1295 C 972 1355 871 1386 739 1386 L 276 1386 Z" unicode="R" />
<glyph horiz-adv-x="1108" d="M 956 1401 L 940 1339 C 890 1357 834 1374 773 1388 C 712 1402 648 1409 580 1409 C 466 1409 372 1384 298 1336 C 223 1287 186 1212 186 1110 C 186 995 229 917 315 877 C 401 836 485 804 569 782 C 696 748 806 701 899 641 C 991 581 1038 489 1038 365 C 1038 246 992 150 901 78 C 809 5 682 -31 518 -31 C 448 -31 375 -24 299 -12 C 222 0 154 20 94 49 L 111 111 C 169 84 235 64 310 50 C 385 36 456 29 524 29 C 655 29 762 57 844 113 C 926 169 967 249 967 352 C 967 464 922 546 834 598 C 745 650 649 689 545 717 C 457 740 364 775 264 823 C 164 871 115 963 115 1100 C 115 1220 158 1312 245 1374 C 332 1436 445 1468 584 1468 C 658 1468 725 1461 787 1447 C 849 1433 905 1418 956 1401 Z" unicode="S" />
<glyph horiz-adv-x="1141" d="M 47 1446 L 1094 1446 L 1094 1386 L 608 1386 L 608 0 L 532 0 L 532 1386 L 47 1386 L 47 1446 Z" unicode="T" />
<glyph horiz-adv-x="1401" d="M 182 1446 L 254 1446 L 254 483 C 254 375 278 274 327 180 C 375 86 500 39 702 39 C 902 39 1027 86 1075 180 C 1123 274 1147 375 1147 483 L 1147 1446 L 1219 1446 L 1219 477 C 1219 359 1190 246 1132 140 C 1074 33 931 -20 702 -20 C 473 -20 329 33 270 140 C 211 246 182 359 182 477 L 182 1446 Z" unicode="U" />
<glyph horiz-adv-x="1184" d="M 51 1446 L 131 1446 L 573 143 L 590 76 L 600 76 L 616 143 L 1059 1446 L 1137 1446 L 637 0 L 549 0 L 51 1446 Z" unicode="V" />
<glyph horiz-adv-x="1872" d="M 90 1446 L 166 1446 L 477 139 L 494 68 L 506 68 L 520 139 L 879 1446 L 981 1446 L 1339 139 L 1356 68 L 1368 68 L 1382 139 L 1708 1446 L 1784 1446 L 1413 0 L 1309 0 L 950 1305 L 934 1378 L 922 1378 L 907 1305 L 551 0 L 446 0 L 90 1446 Z" unicode="W" />
<glyph horiz-adv-x="1165" d="M 154 1446 L 582 803 L 1018 1446 L 1098 1446 L 625 756 L 1110 0 L 1018 0 L 580 707 L 137 0 L 55 0 L 539 756 L 66 1446 L 154 1446 Z" unicode="X" />
<glyph horiz-adv-x="1116" d="M 25 1446 L 111 1446 L 561 604 L 1012 1446 L 1092 1446 L 594 537 L 594 0 L 522 0 L 522 537 L 25 1446 Z" unicode="Y" />
<glyph horiz-adv-x="1260" d="M 170 1446 L 1153 1446 L 1153 1393 L 186 59 L 1163 59 L 1163 0 L 96 0 L 96 53 L 1063 1386 L 170 1386 L 170 1446 Z" unicode="Z" />
<glyph horiz-adv-x="647" d="M 156 1536 L 522 1536 L 522 1483 L 221 1483 L 221 -272 L 522 -272 L 522 -326 L 156 -326 L 156 1536 Z" unicode="[" />
<glyph horiz-adv-x="813" d="M 0 1446 L 68 1446 L 813 -236 L 750 -236 L 0 1446 Z" unicode="\" />
<glyph horiz-adv-x="647" d="M 125 1536 L 492 1536 L 492 -326 L 125 -326 L 125 -272 L 428 -272 L 428 1483 L 125 1483 L 125 1536 Z" unicode="]" />
<glyph horiz-adv-x="1167" d="M 524 1364 L 575 1364 L 1081 414 L 999 414 L 627 1141 L 557 1284 L 545 1284 L 473 1141 L 102 414 L 20 414 L 524 1364 Z" unicode="^" />
<glyph horiz-adv-x="1167" d="M -10 -360 L 1178 -360 L 1178 -414 L -10 -414 L -10 -360 Z" unicode="_" />
<glyph horiz-adv-x="840" d="M 182 1530 L 252 1530 L 498 1255 L 498 1231 L 465 1231 L 182 1499 L 182 1530 Z" unicode="`" />
<glyph horiz-adv-x="1065" d="M 915 0 L 852 0 L 852 211 C 798 128 732 69 656 35 C 580 1 505 -16 432 -16 C 328 -16 246 10 186 63 C 126 115 96 187 96 279 C 96 380 147 462 249 525 C 351 587 551 620 848 623 L 848 700 C 848 812 823 892 773 939 C 723 986 648 1010 549 1010 C 474 1010 405 1000 342 981 C 279 962 230 942 195 922 L 168 975 C 198 995 248 1016 317 1037 C 386 1058 464 1069 551 1069 C 667 1069 757 1041 820 985 C 883 929 915 832 915 694 L 915 0 Z M 440 39 C 570 39 671 76 742 150 C 812 224 848 279 848 315 L 848 578 C 572 570 390 540 300 487 C 210 434 166 366 166 283 C 166 207 190 148 238 104 C 286 60 353 39 440 39 Z" unicode="a" />
<glyph horiz-adv-x="1151" d="M 250 0 L 184 0 L 184 1507 L 252 1507 L 252 870 C 292 931 342 979 402 1015 C 462 1051 532 1069 612 1069 C 765 1069 875 1016 942 911 C 1008 805 1042 681 1042 537 C 1042 415 1013 293 955 169 C 897 45 781 -16 608 -16 C 540 -16 473 -2 408 25 C 342 53 290 102 250 174 L 250 0 Z M 604 1010 C 487 1010 399 976 340 909 C 281 842 252 797 252 774 L 252 276 C 252 252 277 208 329 142 C 381 76 469 43 594 43 C 746 43 847 97 897 205 C 946 313 971 424 971 537 C 971 659 944 769 892 865 C 840 961 744 1010 604 1010 Z" unicode="b" />
<glyph horiz-adv-x="983" d="M 870 125 L 889 66 C 849 40 804 19 754 5 C 704 -8 647 -16 582 -16 C 420 -16 301 34 224 135 C 147 236 109 363 109 516 C 109 677 149 809 230 913 C 311 1017 430 1069 586 1069 C 648 1069 704 1061 754 1047 C 804 1032 849 1012 889 987 L 870 928 C 832 953 790 973 742 988 C 694 1002 642 1010 586 1010 C 451 1010 349 963 281 871 C 212 778 178 660 178 518 C 178 387 209 275 272 182 C 335 89 440 43 586 43 C 644 43 696 50 743 64 C 789 78 832 98 870 125 Z" unicode="c" />
<glyph horiz-adv-x="1147" d="M 963 0 L 897 0 L 897 180 C 852 116 798 67 736 34 C 674 0 605 -16 530 -16 C 372 -16 261 39 199 149 C 137 259 106 382 106 518 C 106 649 137 774 199 892 C 261 1010 377 1069 545 1069 C 616 1069 683 1054 746 1024 C 808 994 858 945 895 877 L 895 1507 L 963 1507 L 963 0 Z M 545 43 C 661 43 748 76 807 143 C 865 209 895 255 895 279 L 895 774 C 895 797 869 842 817 909 C 765 976 677 1010 553 1010 C 400 1010 299 956 250 848 C 200 740 176 630 176 518 C 176 393 202 283 255 187 C 308 91 405 43 545 43 Z" unicode="d" />
<glyph horiz-adv-x="1114" d="M 1006 530 L 178 530 L 178 514 C 178 384 211 273 279 181 C 346 89 457 43 612 43 C 680 43 742 53 798 75 C 853 96 905 125 954 162 L 981 106 C 931 66 876 36 816 15 C 756 -5 688 -16 612 -16 C 438 -16 311 34 230 134 C 149 234 109 359 109 510 C 109 673 151 807 237 912 C 322 1016 439 1069 588 1069 C 725 1069 830 1026 903 941 C 975 855 1012 746 1012 614 C 1012 603 1011 592 1011 581 C 1010 569 1008 552 1006 530 Z M 586 1012 C 471 1012 378 973 306 895 C 234 817 193 714 182 586 L 942 586 C 948 706 921 807 859 889 C 797 971 706 1012 586 1012 Z" unicode="e" />
<glyph horiz-adv-x="502" d="M 508 1516 L 496 1462 C 490 1464 481 1465 469 1467 C 456 1469 445 1470 436 1470 C 376 1470 332 1449 303 1408 C 274 1366 260 1313 260 1247 L 260 1053 L 506 1053 L 506 999 L 260 999 L 260 0 L 193 0 L 193 999 L 18 999 L 18 1053 L 193 1053 L 193 1245 C 193 1324 213 1391 254 1446 C 294 1500 353 1528 430 1528 C 448 1528 465 1527 479 1525 C 493 1523 503 1520 508 1516 Z" unicode="f" />
<glyph horiz-adv-x="1147" d="M 963 1053 L 963 -25 C 963 -154 930 -260 866 -343 C 801 -425 697 -467 555 -467 C 489 -467 426 -460 366 -448 C 305 -436 249 -417 197 -393 L 215 -336 C 261 -358 312 -376 369 -389 C 425 -401 487 -408 555 -408 C 667 -408 752 -374 809 -308 C 866 -241 895 -144 895 -18 L 895 178 C 853 116 800 68 738 34 C 676 0 606 -16 530 -16 C 373 -16 263 39 200 149 C 137 259 106 382 106 518 C 106 648 137 773 199 891 C 261 1009 377 1069 547 1069 C 617 1069 683 1054 745 1024 C 807 994 858 944 897 874 L 897 1053 L 963 1053 Z M 545 43 C 661 43 748 76 807 143 C 865 209 895 255 895 279 L 895 774 C 895 798 869 844 817 910 C 765 976 677 1010 553 1010 C 400 1010 299 955 250 847 C 200 739 176 628 176 516 C 176 392 202 283 255 187 C 308 91 405 43 545 43 Z" unicode="g" />
<glyph horiz-adv-x="1133" d="M 983 0 L 915 0 L 915 684 C 915 738 908 784 896 824 C 884 864 864 897 838 924 C 811 950 778 971 739 987 C 699 1002 654 1010 602 1010 C 488 1010 401 978 341 916 C 281 854 252 808 252 780 L 252 0 L 184 0 L 184 1507 L 252 1507 L 252 872 C 288 936 340 984 406 1018 C 472 1052 540 1069 612 1069 C 672 1069 725 1059 771 1041 C 817 1023 857 998 889 967 C 920 935 943 895 959 848 C 975 800 983 743 983 676 L 983 0 Z" unicode="h" />
<glyph horiz-adv-x="436" d="M 184 1053 L 252 1053 L 252 0 L 184 0 L 184 1053 Z M 178 1507 L 258 1507 L 258 1321 L 178 1321 L 178 1507 Z" unicode="i" />
<glyph horiz-adv-x="436" d="M -39 -449 L -35 -393 C -31 -393 -24 -394 -15 -395 C -5 -396 2 -397 8 -397 C 67 -397 111 -376 140 -335 C 169 -293 184 -240 184 -174 L 184 1053 L 252 1053 L 252 -172 C 252 -251 231 -318 191 -373 C 150 -427 91 -455 14 -455 C 4 -455 -5 -454 -15 -453 C -25 -452 -33 -451 -39 -449 Z M 178 1507 L 258 1507 L 258 1321 L 178 1321 L 178 1507 Z" unicode="j" />
<glyph horiz-adv-x="1010" d="M 184 1507 L 252 1507 L 252 442 L 881 1053 L 967 1053 L 539 643 L 991 0 L 905 0 C 845 89 776 188 698 297 C 620 405 550 505 489 596 L 252 371 L 252 0 L 184 0 L 184 1507 Z" unicode="k" />
<glyph horiz-adv-x="436" d="M 184 1507 L 252 1507 L 252 0 L 184 0 L 184 1507 Z" unicode="l" />
<glyph horiz-adv-x="1743" d="M 915 0 L 846 0 L 846 731 C 846 813 824 880 780 932 C 736 984 666 1010 569 1010 C 467 1010 389 978 334 916 C 279 854 252 808 252 780 L 252 0 L 184 0 L 184 1053 L 250 1053 L 250 870 C 286 936 334 986 394 1019 C 454 1052 516 1069 582 1069 C 662 1069 730 1051 787 1016 C 844 981 883 922 905 840 C 935 917 982 974 1044 1012 C 1106 1050 1171 1069 1241 1069 C 1297 1069 1346 1061 1388 1045 C 1430 1029 1465 1005 1493 975 C 1520 946 1541 910 1555 868 C 1569 825 1577 775 1577 717 L 1577 0 L 1507 0 L 1507 727 C 1507 811 1485 880 1441 932 C 1397 984 1326 1010 1229 1010 C 1149 1010 1077 981 1012 924 C 947 867 915 798 915 717 L 915 0 Z" unicode="m" />
<glyph horiz-adv-x="1133" d="M 983 0 L 915 0 L 915 684 C 915 738 908 784 896 824 C 884 864 864 897 838 924 C 811 950 778 971 739 987 C 699 1002 654 1010 602 1010 C 488 1010 401 978 341 916 C 281 854 252 808 252 780 L 252 0 L 184 0 L 184 1053 L 250 1053 L 250 868 C 286 933 337 983 404 1017 C 471 1051 540 1069 612 1069 C 672 1069 725 1059 771 1041 C 817 1023 857 998 889 967 C 920 935 943 895 959 848 C 975 800 983 743 983 676 L 983 0 Z" unicode="n" />
<glyph horiz-adv-x="1143" d="M 573 1069 C 715 1069 828 1018 910 917 C 992 815 1034 686 1034 528 C 1034 381 994 254 914 146 C 834 38 721 -16 573 -16 C 429 -16 316 34 233 134 C 150 234 109 366 109 528 C 109 678 149 805 230 911 C 310 1016 425 1069 573 1069 Z M 573 1010 C 443 1010 345 963 278 869 C 211 775 178 662 178 528 C 178 390 211 274 279 182 C 346 89 444 43 573 43 C 703 43 800 91 866 187 C 932 283 965 396 965 528 C 965 664 931 778 864 871 C 797 963 700 1010 573 1010 Z" unicode="o" />
<glyph horiz-adv-x="1151" d="M 184 1053 L 250 1053 L 250 868 C 294 933 345 983 404 1017 C 463 1051 532 1069 612 1069 C 765 1069 875 1016 942 911 C 1008 806 1042 682 1042 539 C 1042 416 1012 293 954 169 C 895 45 780 -16 608 -16 C 538 -16 471 -2 406 25 C 341 53 290 102 252 172 L 252 -451 L 184 -451 L 184 1053 Z M 604 1010 C 487 1010 399 976 340 909 C 281 842 252 797 252 774 L 252 276 C 252 251 278 206 330 141 C 382 75 469 43 590 43 C 744 43 846 96 896 203 C 946 309 971 420 971 535 C 971 659 944 769 892 865 C 840 961 744 1010 604 1010 Z" unicode="p" />
<glyph horiz-adv-x="1147" d="M 897 1053 L 963 1053 L 963 -451 L 895 -451 L 895 178 C 853 116 800 68 738 34 C 676 0 606 -16 530 -16 C 373 -16 263 39 200 149 C 137 259 106 382 106 518 C 106 648 137 773 199 891 C 261 1009 377 1069 545 1069 C 616 1069 683 1054 745 1024 C 807 994 858 944 897 874 L 897 1053 Z M 549 43 C 661 43 746 76 806 142 C 865 208 895 254 895 279 L 895 774 C 895 798 869 844 817 910 C 765 976 677 1010 553 1010 C 400 1010 299 955 250 847 C 200 739 176 628 176 516 C 176 390 202 280 256 185 C 309 90 407 43 549 43 Z" unicode="q" />
<glyph horiz-adv-x="627" d="M 616 1055 L 606 983 C 590 987 577 990 566 992 C 554 994 541 995 526 995 C 437 995 369 966 322 908 C 275 850 252 806 252 778 L 252 0 L 184 0 L 184 1053 L 250 1053 L 250 870 C 277 928 316 975 367 1011 C 417 1047 472 1065 530 1065 C 545 1065 560 1064 574 1062 C 588 1060 602 1057 616 1055 Z" unicode="r" />
<glyph horiz-adv-x="889" d="M 100 33 L 115 90 C 137 76 178 62 237 47 C 296 32 356 25 418 25 C 502 25 576 43 639 81 C 701 119 733 178 733 260 C 733 338 702 394 642 428 C 581 461 502 492 406 522 C 339 542 275 573 214 615 C 153 657 123 721 123 809 C 123 893 154 958 217 1002 C 279 1046 362 1069 465 1069 C 511 1069 561 1064 613 1054 C 665 1044 709 1031 745 1014 L 729 954 C 692 971 649 985 601 997 C 552 1008 505 1014 461 1014 C 381 1014 316 997 265 964 C 213 930 188 881 188 815 C 188 747 213 695 263 661 C 313 627 378 597 459 573 C 538 548 615 517 689 480 C 763 442 801 372 801 268 C 801 165 762 89 686 41 C 609 -6 520 -31 420 -31 C 352 -31 287 -23 223 -7 C 159 8 118 21 100 33 Z" unicode="s" />
<glyph horiz-adv-x="571" d="M 205 1333 L 272 1333 L 272 1053 L 510 1053 L 510 999 L 272 999 L 272 244 C 272 184 280 136 298 100 C 315 63 360 45 432 45 L 514 45 L 510 -6 C 502 -10 492 -12 480 -14 C 468 -15 449 -16 424 -16 C 330 -16 270 8 244 57 C 218 105 205 165 205 236 L 205 999 L 33 999 L 33 1053 L 205 1053 L 205 1333 Z" unicode="t" />
<glyph horiz-adv-x="1133" d="M 164 1053 L 231 1053 L 231 369 C 231 315 237 268 250 228 C 262 188 282 155 309 129 C 335 102 368 81 408 66 C 448 50 493 43 545 43 C 659 43 745 74 805 136 C 865 198 895 243 895 272 L 895 1053 L 963 1053 L 963 0 L 897 0 L 897 184 C 861 118 809 69 743 35 C 676 1 607 -16 535 -16 C 475 -16 422 -6 376 11 C 329 29 290 54 258 86 C 226 118 203 157 187 205 C 171 252 164 309 164 377 L 164 1053 Z" unicode="u" />
<glyph horiz-adv-x="864" d="M 14 1053 L 90 1053 L 420 131 L 434 76 L 440 76 L 457 131 L 780 1053 L 854 1053 L 477 0 L 395 0 L 14 1053 Z" unicode="v" />
<glyph horiz-adv-x="1395" d="M 39 1053 L 113 1053 L 362 152 L 375 90 L 383 90 L 399 152 L 651 1053 L 737 1053 L 991 152 L 1006 90 L 1014 90 L 1028 152 L 1290 1053 L 1364 1053 L 1053 0 L 971 0 L 713 913 L 698 973 L 690 973 L 676 913 L 418 0 L 336 0 L 39 1053 Z" unicode="w" />
<glyph horiz-adv-x="866" d="M 131 1053 L 432 592 L 737 1053 L 815 1053 L 473 549 L 827 0 L 741 0 L 430 500 L 115 0 L 35 0 L 391 545 L 49 1053 L 131 1053 Z" unicode="x" />
<glyph horiz-adv-x="879" d="M 6 1053 L 82 1053 L 426 127 L 440 72 L 446 72 L 463 127 L 791 1053 L 866 1053 L 426 -152 C 397 -229 362 -299 321 -361 C 280 -423 222 -455 147 -455 C 138 -455 130 -454 123 -453 C 116 -451 110 -449 106 -446 L 100 -397 C 178 -397 235 -374 269 -328 C 303 -282 333 -225 358 -156 L 410 -16 L 6 1053 Z" unicode="y" />
<glyph horiz-adv-x="907" d="M 125 1053 L 823 1053 L 823 1008 L 158 53 L 840 53 L 840 0 L 76 0 L 76 47 L 741 999 L 125 999 L 125 1053 Z" unicode="z" />
<glyph horiz-adv-x="754" d="M 653 -326 L 565 -326 C 531 -326 494 -318 453 -304 C 412 -289 378 -267 350 -238 C 325 -212 306 -182 294 -148 C 282 -114 276 -79 276 -45 C 276 -24 277 -7 280 5 C 282 17 285 29 287 41 L 344 342 C 346 352 347 361 348 369 C 349 377 350 385 350 391 C 350 439 336 484 306 526 C 276 567 237 588 190 588 L 78 588 L 78 649 L 190 649 C 235 649 273 668 305 707 C 336 745 352 790 352 840 C 352 846 351 853 350 861 C 348 869 346 879 344 893 L 287 1169 C 285 1177 282 1189 280 1204 C 277 1218 276 1235 276 1253 C 276 1291 283 1326 297 1359 C 311 1392 330 1420 354 1444 C 384 1473 418 1496 457 1512 C 496 1528 532 1536 565 1536 L 653 1536 L 653 1483 L 580 1483 C 549 1483 518 1476 486 1463 C 454 1450 427 1431 403 1407 C 384 1387 369 1364 359 1338 C 349 1311 344 1281 344 1249 C 344 1229 345 1212 348 1196 C 350 1180 353 1165 356 1153 L 410 903 C 410 894 411 883 413 870 C 415 857 416 846 416 836 C 416 799 401 758 372 712 C 342 666 302 637 252 623 L 252 616 C 306 597 346 565 374 521 C 402 477 416 437 416 401 C 416 392 415 381 413 369 C 411 356 410 346 410 340 L 356 59 C 352 39 349 23 347 9 C 345 -5 344 -21 344 -41 C 344 -70 348 -99 356 -127 C 364 -155 378 -179 397 -201 C 419 -225 447 -243 481 -255 C 515 -266 548 -272 580 -272 L 653 -272 L 653 -326 Z" unicode="{" />
<glyph horiz-adv-x="791" d="M 356 1720 L 434 1720 L 434 -348 L 356 -348 L 356 1720 Z" unicode="|" />
<glyph horiz-adv-x="754" d="M 100 -326 L 100 -272 L 174 -272 C 206 -272 238 -266 272 -255 C 305 -243 333 -225 356 -201 C 374 -179 388 -155 397 -127 C 405 -99 410 -70 410 -41 C 410 -21 409 -5 407 9 C 405 23 401 39 397 59 L 342 340 C 341 346 340 356 339 369 C 338 381 338 392 338 401 C 338 437 351 477 379 521 C 407 565 448 597 502 616 L 502 623 C 450 637 409 666 381 712 C 352 758 338 799 338 836 C 338 846 338 857 339 870 C 340 883 342 894 344 903 L 397 1153 C 399 1165 402 1180 405 1196 C 408 1212 410 1229 410 1249 C 410 1281 404 1311 394 1338 C 384 1364 369 1387 350 1407 C 326 1431 299 1450 267 1463 C 235 1476 204 1483 174 1483 L 100 1483 L 100 1536 L 188 1536 C 220 1536 256 1528 296 1512 C 335 1496 369 1473 399 1444 C 422 1420 441 1392 455 1359 C 469 1326 477 1291 477 1253 C 477 1235 475 1218 472 1204 C 469 1189 467 1177 467 1169 L 410 893 C 406 879 404 869 403 861 C 401 853 401 846 401 840 C 401 790 416 745 448 707 C 480 668 518 649 563 649 L 676 649 L 676 588 L 563 588 C 516 588 477 567 447 526 C 417 484 402 439 403 391 C 403 385 403 377 405 369 C 406 361 408 352 410 342 L 467 41 C 469 29 471 17 473 5 C 475 -7 477 -24 477 -45 C 477 -79 470 -114 458 -148 C 446 -182 427 -212 403 -238 C 374 -267 339 -289 299 -304 C 259 -318 222 -326 188 -326 L 100 -326 Z" unicode="}" />
<glyph horiz-adv-x="1167" d="M 137 496 L 88 530 C 132 585 182 629 238 661 C 294 693 347 709 397 709 C 484 709 548 674 589 604 C 630 534 693 500 778 500 C 818 500 859 512 900 538 C 940 564 979 599 1016 643 L 1065 606 C 1020 553 972 511 921 481 C 870 451 820 436 770 436 C 674 436 607 470 569 539 C 530 608 470 643 389 643 C 350 643 308 630 262 604 C 216 578 175 542 137 496 Z" unicode="~" />
<glyph horiz-adv-x="895" d="" unicode="ⁿ" />
<glyph horiz-adv-x="780" d="" unicode="₀" />
<glyph horiz-adv-x="477" d="" unicode="₁" />
<glyph horiz-adv-x="897" d="M 416 1415 L 483 1415 L 483 1368 L 465 1124 L 471 1118 L 690 1137 L 737 1137 L 737 1069 L 690 1069 L 471 1090 L 465 1077 L 485 901 L 485 831 L 465 655 L 471 643 L 690 662 L 737 662 L 737 594 L 690 594 L 471 614 L 465 608 L 483 362 L 483 315 L 416 315 L 416 362 L 434 608 L 428 614 L 205 594 L 158 594 L 158 662 L 205 662 L 428 643 L 434 655 L 416 831 L 416 899 L 436 1079 L 428 1090 L 205 1069 L 158 1069 L 158 1137 L 205 1137 L 428 1118 L 436 1124 L 416 1368 L 416 1415 Z" unicode="‡" />
<glyph horiz-adv-x="745" d="" unicode="₃" />
<glyph horiz-adv-x="756" d="" unicode="₄" />
<glyph horiz-adv-x="745" d="" unicode="₅" />
<glyph horiz-adv-x="764" d="" unicode="₆" />
<glyph horiz-adv-x="684" d="" unicode="₇" />
<glyph horiz-adv-x="791" d="" unicode="₈" />
<glyph horiz-adv-x="764" d="" unicode="₉" />
<glyph horiz-adv-x="1839" d="" unicode="℗" />
<glyph horiz-adv-x="1260" d="M 170 1446 L 1153 1446 L 1153 1393 L 186 59 L 1163 59 L 1163 0 L 96 0 L 96 53 L 1063 1386 L 170 1386 L 170 1446 Z M 667 1603 L 610 1603 L 383 1879 L 383 1902 L 420 1902 L 637 1660 L 643 1660 L 860 1902 L 899 1902 L 899 1879 L 667 1603 Z" unicode="" />
<glyph horiz-adv-x="1167" d="" unicode="≤" />
<glyph horiz-adv-x="2040" d="" unicode="∞" />
<glyph horiz-adv-x="780" d="" unicode="⁰" />
<glyph horiz-adv-x="907" d="M 125 1053 L 823 1053 L 823 1008 L 158 53 L 840 53 L 840 0 L 76 0 L 76 47 L 741 999 L 125 999 L 125 1053 Z M 503 1231 L 446 1231 L 219 1507 L 219 1530 L 256 1530 L 473 1288 L 479 1288 L 696 1530 L 735 1530 L 735 1507 L 503 1231 Z" unicode="" />
<glyph horiz-adv-x="469" d="" unicode=" " />
<glyph horiz-adv-x="510" d="M 274 -393 L 186 -393 L 186 -205 L 205 578 L 254 578 L 274 -205 L 274 -393 Z M 272 834 L 184 834 L 184 1053 L 272 1053 L 272 834 Z" unicode="¡" />
<glyph horiz-adv-x="1167" d="M 643 -16 C 624 -16 606 -15 590 -13 C 573 -11 557 -10 543 -8 L 489 -332 L 430 -328 L 487 4 C 379 34 299 96 247 188 C 195 280 170 389 170 516 C 170 677 210 809 291 913 C 372 1017 491 1069 647 1069 L 664 1069 L 713 1366 L 772 1362 L 723 1065 C 767 1060 808 1051 846 1037 C 884 1023 918 1006 950 987 L 928 932 C 891 956 849 975 803 989 C 756 1003 704 1010 647 1010 C 513 1010 411 963 342 871 C 272 778 238 660 238 518 C 238 387 269 275 333 182 C 396 89 501 43 647 43 C 705 43 757 49 803 63 C 849 77 891 96 928 121 L 950 66 C 910 40 865 19 815 5 C 765 -8 708 -16 643 -16 Z" unicode="¢" />
<glyph horiz-adv-x="1167" d="M 793 729 L 793 674 L 410 674 C 433 627 453 579 471 529 C 489 479 498 427 498 373 C 498 335 493 299 484 265 C 475 231 462 199 446 170 C 492 134 544 104 602 82 C 660 60 726 49 799 49 C 845 49 889 57 929 74 C 969 90 1005 110 1038 133 L 1038 68 C 1017 47 984 28 940 11 C 896 -5 849 -14 799 -14 C 724 -14 655 -2 592 22 C 529 46 470 79 414 121 C 385 79 349 47 307 25 C 264 3 216 -8 164 -8 C 141 -8 121 -6 104 -3 C 86 0 71 5 59 14 L 59 72 C 71 66 87 62 105 58 C 123 54 143 53 164 53 C 253 53 320 84 364 147 C 408 210 430 283 430 367 C 430 421 419 474 399 524 C 379 574 356 624 332 674 L 59 674 L 59 729 L 303 729 C 279 775 258 823 240 873 C 222 923 213 975 213 1030 C 213 1132 249 1216 321 1283 C 393 1350 498 1384 635 1384 C 705 1384 773 1374 841 1355 C 908 1335 961 1310 1001 1280 L 975 1227 C 930 1257 877 1281 816 1299 C 755 1316 694 1325 633 1325 C 521 1325 435 1297 375 1242 C 315 1187 285 1116 285 1030 C 285 976 294 924 314 875 C 333 825 355 777 381 729 L 793 729 Z" unicode="£" />
<glyph horiz-adv-x="1167" d="M 96 -115 L 272 182 C 229 222 197 273 177 335 C 157 397 147 473 147 565 L 147 684 C 147 758 156 831 174 902 C 192 973 229 1030 285 1073 L 104 1364 L 170 1364 L 332 1106 C 364 1125 402 1140 445 1151 C 487 1161 534 1167 584 1167 C 636 1167 684 1161 728 1150 C 771 1139 809 1122 842 1100 L 1008 1364 L 1075 1364 L 889 1067 C 935 1024 969 972 989 910 C 1009 848 1020 773 1020 684 L 1020 565 C 1020 475 1010 401 991 341 C 971 281 941 232 901 193 L 1083 -115 L 1014 -115 L 854 156 C 819 132 779 114 735 101 C 690 88 640 82 584 82 C 530 82 481 87 437 99 C 393 110 353 128 319 152 L 164 -115 L 96 -115 Z M 584 141 C 644 141 696 149 740 166 C 784 182 821 206 852 236 C 886 269 911 313 927 368 C 943 423 951 493 952 578 L 952 672 C 952 758 945 829 929 883 C 913 937 888 981 856 1014 C 825 1044 787 1068 743 1084 C 698 1100 645 1108 584 1108 C 524 1108 470 1099 424 1083 C 378 1067 339 1043 309 1012 C 277 980 254 937 238 883 C 222 829 215 758 215 672 L 215 578 C 215 490 222 420 238 366 C 254 312 277 269 309 238 C 339 206 378 181 424 165 C 470 149 524 141 584 141 Z" unicode="¤" />
<glyph horiz-adv-x="1167" d="M 141 1364 L 225 1364 L 592 600 L 958 1364 L 1036 1364 L 793 874 L 1085 874 L 1085 821 L 766 821 L 635 557 L 1085 557 L 1085 504 L 625 504 L 625 0 L 553 0 L 553 504 L 82 504 L 82 557 L 539 557 L 410 821 L 82 821 L 82 874 L 383 874 L 141 1364 Z" unicode="¥" />
<glyph horiz-adv-x="791" d="M 356 530 L 434 530 L 434 -195 L 356 -195 L 356 530 Z M 356 1567 L 434 1567 L 434 840 L 356 840 L 356 1567 Z" unicode="¦" />
<glyph horiz-adv-x="1290" d="M 305 -260 L 322 -203 C 368 -220 419 -234 477 -244 C 535 -254 588 -260 637 -260 C 730 -260 803 -241 855 -205 C 907 -169 934 -121 934 -61 C 934 11 905 64 849 100 C 792 136 717 163 625 182 C 508 202 393 240 281 295 C 169 349 113 441 113 571 C 113 661 144 732 208 785 C 272 837 348 871 438 887 C 390 910 351 941 321 980 C 291 1018 276 1068 276 1128 C 276 1202 307 1264 370 1312 C 432 1360 521 1384 635 1384 C 685 1384 741 1379 803 1369 C 865 1359 919 1346 963 1329 L 948 1272 C 901 1289 849 1303 792 1313 C 734 1323 681 1329 633 1329 C 541 1329 470 1310 419 1274 C 367 1238 342 1190 342 1130 C 342 1058 370 1004 427 968 C 483 932 558 905 651 887 C 767 866 882 828 994 774 C 1106 719 1163 627 1163 498 C 1163 406 1130 335 1066 283 C 1002 231 925 197 836 182 C 884 158 923 127 953 88 C 983 48 999 0 999 -59 C 999 -133 967 -195 903 -243 C 839 -291 749 -315 633 -315 C 583 -315 527 -310 465 -300 C 403 -290 349 -277 305 -260 Z M 600 836 C 589 838 578 840 568 842 C 557 844 547 847 537 850 C 443 847 360 823 288 777 C 216 731 180 663 180 573 C 180 464 230 387 331 341 C 432 295 546 259 674 233 C 684 231 694 228 705 226 C 716 224 727 221 737 219 C 830 221 913 244 986 290 C 1059 336 1096 404 1096 496 C 1096 604 1045 682 943 728 C 841 774 727 810 600 836 Z" unicode="§" />
<glyph horiz-adv-x="840" d="M 168 1446 L 242 1446 L 242 1272 L 168 1272 L 168 1446 Z M 598 1446 L 672 1446 L 672 1272 L 598 1272 L 598 1446 Z" unicode="¨" />
<glyph horiz-adv-x="1839" d="M 1214 1063 L 1192 1010 C 1153 1026 1112 1038 1069 1048 C 1025 1058 982 1063 938 1063 C 820 1063 726 1026 656 954 C 586 881 551 792 551 686 C 551 578 589 492 667 429 C 745 365 837 334 944 334 C 998 334 1045 338 1085 346 C 1125 354 1161 363 1194 375 L 1217 322 C 1183 308 1144 297 1101 289 C 1058 280 1006 276 944 276 C 818 276 710 313 619 387 C 528 461 483 560 483 686 C 483 808 524 911 606 995 C 688 1078 799 1120 938 1120 C 986 1120 1034 1114 1082 1104 C 1130 1094 1174 1080 1214 1063 Z M 901 -143 C 672 -143 476 -62 312 99 C 148 260 66 455 66 684 C 66 911 148 1105 312 1266 C 476 1426 672 1507 901 1507 C 1130 1507 1327 1426 1493 1266 C 1658 1105 1741 911 1741 684 C 1741 455 1658 260 1493 99 C 1327 -62 1130 -143 901 -143 Z M 901 -90 C 1113 -90 1296 -14 1449 137 C 1602 289 1679 471 1679 684 C 1679 896 1602 1077 1449 1229 C 1296 1380 1113 1456 901 1456 C 690 1456 508 1380 356 1229 C 203 1077 127 896 127 684 C 127 471 203 289 356 137 C 508 -14 690 -90 901 -90 Z" unicode="©" />
<glyph horiz-adv-x="844" d="M 340 633 C 259 633 196 653 150 695 C 104 736 82 792 82 862 C 82 939 121 1002 200 1050 C 278 1098 430 1124 655 1126 L 655 1188 C 655 1271 636 1331 599 1367 C 562 1403 506 1421 432 1421 C 374 1421 320 1413 272 1397 C 223 1381 184 1366 156 1350 L 131 1393 C 155 1409 194 1427 248 1445 C 302 1463 364 1473 434 1473 C 524 1473 594 1451 644 1408 C 694 1364 719 1290 719 1184 L 719 645 L 659 645 L 659 805 C 619 743 570 698 512 672 C 454 646 397 633 340 633 Z M 350 682 C 448 682 523 709 576 765 C 628 820 655 862 655 891 L 655 1087 C 454 1081 318 1058 248 1019 C 178 980 143 928 143 862 C 143 806 161 762 198 730 C 235 698 286 682 350 682 Z" unicode="ª" />
<glyph horiz-adv-x="1004" d="M 338 887 L 414 887 L 113 580 L 414 268 L 340 268 L 59 555 L 59 602 L 338 887 Z M 731 887 L 807 887 L 506 580 L 807 268 L 733 268 L 453 555 L 453 602 L 731 887 Z" unicode="«" />
<glyph horiz-adv-x="1167" d="M 57 877 L 1067 877 L 1067 264 L 999 264 L 999 815 L 57 815 L 57 877 Z" unicode="¬" />
<glyph horiz-adv-x="629" d="M 94 606 L 535 606 L 535 541 L 94 541 L 94 606 Z" unicode="­" />
<glyph horiz-adv-x="1073" d="M 383 776 L 338 776 L 338 1249 L 592 1249 C 634 1249 671 1236 702 1212 C 732 1187 748 1156 748 1118 C 748 1085 736 1056 714 1032 C 692 1008 663 993 627 987 L 752 776 L 698 776 L 578 983 L 383 983 L 383 776 Z M 522 530 C 388 530 275 575 183 667 C 91 758 45 869 45 1001 C 45 1127 91 1237 183 1329 C 275 1421 388 1468 522 1468 C 656 1468 771 1421 865 1329 C 959 1237 1006 1127 1006 1001 C 1006 869 959 758 865 667 C 771 575 656 530 522 530 Z M 522 567 C 644 567 749 609 835 694 C 921 778 965 881 965 1001 C 965 1117 921 1218 835 1304 C 749 1389 644 1432 522 1432 C 399 1432 296 1389 212 1304 C 128 1218 86 1117 86 1001 C 86 881 128 778 212 694 C 296 609 399 567 522 567 Z M 592 1210 L 383 1210 L 383 1024 L 594 1024 C 628 1024 654 1033 673 1052 C 692 1070 702 1092 702 1118 C 702 1144 691 1166 670 1184 C 648 1201 622 1210 592 1210 Z" unicode="®" />
<glyph horiz-adv-x="840" d="M 164 1343 L 676 1343 L 676 1286 L 164 1286 L 164 1343 Z" unicode="¯" />
<glyph horiz-adv-x="774" d="M 387 1391 C 495 1391 572 1357 618 1290 C 663 1223 686 1144 686 1053 C 686 940 660 852 610 789 C 559 725 485 694 387 694 C 275 694 197 731 153 806 C 109 881 88 963 88 1051 C 88 1161 113 1246 164 1304 C 214 1362 289 1391 387 1391 Z M 387 1339 C 303 1339 242 1312 204 1260 C 166 1208 147 1138 147 1051 C 147 981 163 913 197 846 C 230 778 293 745 387 745 C 471 745 532 773 570 831 C 608 889 627 963 627 1053 C 627 1126 609 1192 575 1251 C 541 1309 478 1339 387 1339 Z" unicode="°" />
<glyph horiz-adv-x="1167" d="M 57 756 L 549 756 L 549 1180 L 618 1180 L 618 756 L 1110 756 L 1110 692 L 618 692 L 618 266 L 549 266 L 549 692 L 57 692 L 57 756 Z M 57 61 L 1110 61 L 1110 0 L 57 0 L 57 61 Z" unicode="±" />
<glyph horiz-adv-x="766" d="M 655 567 L 655 516 L 106 516 L 106 569 L 461 926 C 490 955 517 987 543 1022 C 569 1057 582 1097 582 1141 C 582 1189 564 1231 530 1269 C 496 1306 447 1325 383 1325 C 327 1325 281 1310 243 1281 C 205 1251 175 1214 154 1169 L 104 1190 C 124 1236 158 1278 204 1316 C 250 1354 311 1374 389 1374 C 469 1374 531 1351 575 1305 C 619 1259 641 1205 641 1143 C 641 1091 627 1045 601 1007 C 575 968 546 933 514 901 L 178 567 L 655 567 Z" unicode="²" />
<glyph horiz-adv-x="745" d="M 90 1239 C 120 1273 158 1305 203 1334 C 247 1363 303 1378 369 1378 C 436 1378 494 1360 542 1326 C 590 1291 614 1243 614 1182 C 614 1130 597 1088 564 1056 C 531 1024 492 1002 446 991 L 446 987 C 499 983 546 963 586 929 C 626 894 647 846 647 784 C 647 680 598 605 502 560 C 405 514 291 492 160 492 C 148 492 139 492 131 493 C 123 494 117 495 113 496 L 109 547 C 115 546 122 545 132 545 C 141 545 150 545 160 545 C 282 545 384 564 466 602 C 547 640 588 701 588 786 C 588 842 567 883 525 911 C 483 938 439 952 393 952 C 385 952 370 950 349 948 C 328 945 294 940 248 932 L 238 979 L 336 993 C 404 1002 457 1023 496 1056 C 535 1089 555 1130 555 1178 C 555 1222 537 1259 501 1287 C 465 1315 419 1329 365 1329 C 317 1329 276 1318 240 1297 C 204 1276 169 1248 135 1214 L 90 1239 Z" unicode="³" />
<glyph horiz-adv-x="840" d="M 586 1530 L 657 1530 L 657 1499 L 373 1231 L 340 1231 L 340 1255 L 586 1530 Z" unicode="´" />
<glyph horiz-adv-x="1196" d="M 918 184 C 882 118 830 69 763 35 C 696 1 627 -16 555 -16 C 491 -16 430 -1 374 26 C 318 54 277 98 252 158 L 248 154 L 254 10 L 254 -451 L 184 -451 L 184 1053 L 252 1053 L 252 322 C 252 258 277 195 327 134 C 377 73 456 43 565 43 C 679 43 766 74 826 136 C 885 198 915 243 915 272 L 915 1053 L 983 1053 L 983 246 C 983 182 989 130 1002 90 C 1015 49 1028 19 1040 0 L 971 0 C 961 13 950 36 938 70 C 925 103 918 141 918 184 Z" unicode="µ" />
<glyph horiz-adv-x="1266" d="M 514 1446 L 1057 1446 L 1057 -451 L 985 -451 L 985 1386 L 670 1386 L 670 -451 L 598 -451 L 598 629 L 514 629 C 456 629 409 636 373 651 C 337 665 304 686 274 713 C 236 749 203 796 177 855 C 151 913 137 979 137 1053 C 137 1116 147 1172 167 1221 C 187 1270 214 1312 246 1346 C 277 1378 315 1403 360 1420 C 404 1437 456 1446 514 1446 Z" unicode="¶" />
<glyph horiz-adv-x="371" d="M 135 702 L 236 702 L 236 440 L 135 440 L 135 702 Z" unicode="·" />
<glyph horiz-adv-x="840" d="M 387 2 L 444 2 L 444 -57 C 444 -64 446 -71 451 -78 C 455 -84 460 -90 465 -94 L 530 -152 C 543 -164 559 -182 578 -206 C 596 -230 606 -259 606 -293 C 606 -339 587 -376 549 -406 C 511 -436 459 -451 393 -451 C 364 -451 335 -447 307 -440 C 279 -433 256 -422 238 -406 L 256 -358 C 270 -371 291 -381 318 -387 C 344 -393 370 -397 395 -397 C 439 -397 475 -387 503 -368 C 531 -349 545 -323 545 -291 C 545 -265 537 -244 521 -226 C 505 -208 490 -193 477 -182 L 416 -131 C 408 -125 402 -116 396 -105 C 390 -94 387 -84 387 -76 L 387 2 Z" unicode="¸" />
<glyph horiz-adv-x="477" d="M 70 1296 L 242 1364 L 291 1364 L 285 1288 L 285 516 L 225 516 L 225 1282 L 229 1309 L 225 1309 L 70 1241 L 70 1296 Z" unicode="¹" />
<glyph horiz-adv-x="899" d="M 453 1473 C 563 1473 649 1433 713 1355 C 777 1277 809 1177 809 1055 C 809 940 778 841 716 758 C 654 674 567 633 453 633 C 340 633 251 671 187 749 C 122 826 90 928 90 1055 C 90 1171 121 1269 185 1351 C 248 1432 337 1473 453 1473 Z M 451 1421 C 353 1421 279 1384 230 1312 C 180 1240 156 1154 156 1055 C 156 950 180 862 230 791 C 280 719 353 684 451 684 C 548 684 621 720 671 794 C 720 868 745 955 745 1055 C 745 1157 720 1243 670 1314 C 620 1385 547 1421 451 1421 Z" unicode="º" />
<glyph horiz-adv-x="1004" d="M 197 887 L 272 887 L 551 602 L 551 555 L 270 268 L 197 268 L 498 580 L 197 887 Z M 590 887 L 666 887 L 944 602 L 944 555 L 664 268 L 590 268 L 891 580 L 590 887 Z" unicode="»" />
<glyph horiz-adv-x="1446" d="M 1159 848 L 1221 848 L 1221 252 L 1421 252 L 1421 205 L 1221 205 L 1221 0 L 1159 0 L 1159 205 L 750 205 L 750 262 L 1159 848 Z M 70 1296 L 242 1364 L 291 1364 L 285 1288 L 285 516 L 225 516 L 225 1282 L 229 1309 L 225 1309 L 70 1241 L 70 1296 Z M 1161 772 L 799 252 L 1159 252 L 1159 717 L 1165 770 L 1161 772 Z M 985 1364 L 1044 1364 L 268 0 L 209 0 L 985 1364 Z" unicode="¼" />
<glyph horiz-adv-x="1538" d="M 928 653 L 877 674 C 897 720 931 762 977 800 C 1023 838 1085 858 1161 858 C 1242 858 1305 835 1349 789 C 1393 743 1415 689 1415 627 C 1415 575 1401 529 1375 491 C 1348 452 1318 417 1286 385 L 950 51 L 1430 51 L 1430 0 L 881 0 L 881 53 L 1235 410 C 1264 439 1291 471 1316 506 C 1341 541 1354 581 1354 625 C 1354 673 1337 715 1303 753 C 1269 790 1220 809 1155 809 C 1099 809 1053 794 1016 764 C 978 734 949 697 928 653 Z M 70 1296 L 242 1364 L 291 1364 L 285 1288 L 285 516 L 225 516 L 225 1282 L 229 1309 L 225 1309 L 70 1241 L 70 1296 Z M 985 1364 L 1044 1364 L 268 0 L 209 0 L 985 1364 Z" unicode="½" />
<glyph horiz-adv-x="1714" d="M 135 1214 L 90 1239 C 120 1273 158 1305 203 1334 C 247 1363 303 1378 369 1378 C 436 1378 494 1360 542 1326 C 590 1291 614 1243 614 1182 C 614 1130 597 1088 564 1056 C 531 1024 492 1002 446 991 L 446 987 C 499 983 546 963 586 929 C 626 894 647 846 647 784 C 647 680 598 605 502 560 C 405 514 291 492 160 492 C 148 492 139 492 131 493 C 123 494 117 495 113 496 L 109 547 C 115 546 122 545 132 545 C 141 545 150 545 160 545 C 282 545 384 564 466 602 C 547 640 588 701 588 786 C 588 842 567 883 525 911 C 483 938 439 952 393 952 C 385 952 370 950 349 948 C 328 945 294 940 248 932 L 238 979 L 336 993 C 404 1002 457 1023 496 1056 C 535 1089 555 1130 555 1178 C 555 1222 537 1259 501 1287 C 465 1315 419 1329 365 1329 C 317 1329 276 1318 240 1297 C 204 1276 169 1248 135 1214 Z M 1427 848 L 1489 848 L 1489 252 L 1690 252 L 1690 205 L 1489 205 L 1489 0 L 1430 0 L 1430 205 L 1020 205 L 1020 262 L 1427 848 Z M 1430 772 L 1067 252 L 1430 252 L 1430 717 L 1434 770 L 1430 772 Z M 1253 1364 L 1313 1364 L 537 0 L 477 0 L 1253 1364 Z" unicode="¾" />
<glyph horiz-adv-x="897" d="M 772 -197 L 815 -231 C 779 -280 727 -322 659 -357 C 591 -392 516 -410 436 -410 C 344 -410 265 -383 197 -329 C 129 -275 96 -199 96 -100 C 96 -28 114 31 152 81 C 190 131 246 190 322 260 C 359 296 397 335 437 378 C 476 421 496 488 496 578 L 559 578 C 559 492 543 427 513 382 C 483 336 436 285 373 227 C 307 165 256 113 218 69 C 180 25 162 -28 162 -94 C 162 -179 190 -243 247 -286 C 304 -328 368 -350 440 -350 C 505 -350 567 -336 626 -308 C 685 -280 734 -243 772 -197 Z M 567 834 L 479 834 L 479 1053 L 567 1053 L 567 834 Z" unicode="¿" />
<glyph horiz-adv-x="1237" d="M 1083 0 L 954 381 L 274 381 L 143 0 L 74 0 L 575 1446 L 664 1446 L 1159 0 L 1083 0 Z M 936 440 L 639 1307 L 621 1372 L 612 1372 L 594 1307 L 295 440 L 936 440 Z M 378 1902 L 448 1902 L 694 1627 L 694 1603 L 661 1603 L 378 1871 L 378 1902 Z" unicode="À" />
<glyph horiz-adv-x="1237" d="M 1083 0 L 954 381 L 274 381 L 143 0 L 74 0 L 575 1446 L 664 1446 L 1159 0 L 1083 0 Z M 936 440 L 639 1307 L 621 1372 L 612 1372 L 594 1307 L 295 440 L 936 440 Z M 782 1902 L 853 1902 L 853 1871 L 569 1603 L 536 1603 L 536 1627 L 782 1902 Z" unicode="Á" />
<glyph horiz-adv-x="1237" d="M 1083 0 L 954 381 L 274 381 L 143 0 L 74 0 L 575 1446 L 664 1446 L 1159 0 L 1083 0 Z M 936 440 L 639 1307 L 621 1372 L 612 1372 L 594 1307 L 295 440 L 936 440 Z M 585 1902 L 642 1902 L 874 1625 L 874 1603 L 835 1603 L 618 1845 L 612 1845 L 395 1603 L 358 1603 L 358 1625 L 585 1902 Z" unicode="Â" />
<glyph horiz-adv-x="1237" d="M 1083 0 L 954 381 L 274 381 L 143 0 L 74 0 L 575 1446 L 664 1446 L 1159 0 L 1083 0 Z M 936 440 L 639 1307 L 621 1372 L 612 1372 L 594 1307 L 295 440 L 936 440 Z M 292 1664 L 370 1742 C 396 1767 419 1784 438 1793 C 457 1801 476 1806 495 1806 C 516 1806 535 1801 552 1793 C 569 1785 588 1770 610 1750 L 679 1687 C 691 1676 703 1667 715 1661 C 726 1655 738 1652 751 1652 C 764 1652 778 1655 793 1663 C 807 1671 826 1686 849 1709 L 907 1765 L 948 1738 L 870 1660 C 844 1634 822 1617 802 1609 C 782 1601 763 1597 745 1597 C 724 1597 705 1601 688 1609 C 670 1617 651 1631 630 1652 L 563 1715 C 550 1725 537 1734 525 1740 C 513 1746 501 1750 489 1750 C 475 1750 461 1746 447 1738 C 432 1730 413 1715 391 1693 L 333 1638 L 292 1664 Z" unicode="Ã" />
<glyph horiz-adv-x="1237" d="M 1083 0 L 954 381 L 274 381 L 143 0 L 74 0 L 575 1446 L 664 1446 L 1159 0 L 1083 0 Z M 936 440 L 639 1307 L 621 1372 L 612 1372 L 594 1307 L 295 440 L 936 440 Z M 364 1818 L 438 1818 L 438 1644 L 364 1644 L 364 1818 Z M 794 1818 L 868 1818 L 868 1644 L 794 1644 L 794 1818 Z" unicode="Ä" />
<glyph horiz-adv-x="1237" d="M 1083 0 L 954 381 L 274 381 L 143 0 L 74 0 L 575 1446 L 664 1446 L 1159 0 L 1083 0 Z M 936 440 L 639 1307 L 621 1372 L 612 1372 L 594 1307 L 295 440 L 936 440 Z M 401 1741 C 401 1797 422 1846 464 1887 C 506 1928 558 1949 618 1949 C 678 1949 728 1928 770 1887 C 812 1846 833 1797 833 1741 C 833 1683 812 1635 770 1595 C 728 1555 678 1536 618 1536 C 558 1536 506 1555 464 1595 C 422 1635 401 1683 401 1741 Z M 448 1741 C 448 1695 464 1657 498 1625 C 531 1593 571 1577 618 1577 C 664 1577 704 1593 737 1625 C 769 1657 786 1695 786 1741 C 786 1787 769 1826 737 1859 C 704 1892 664 1909 618 1909 C 571 1909 531 1892 498 1859 C 464 1826 448 1787 448 1741 Z" unicode="Å" />
<glyph horiz-adv-x="1968" d="M 1829 0 L 866 0 L 866 381 L 264 381 L 41 0 L -37 0 L 827 1446 L 1808 1446 L 1808 1386 L 938 1386 L 938 784 L 1716 784 L 1716 725 L 938 725 L 938 59 L 1829 59 L 1829 0 Z M 866 440 L 866 1389 L 856 1389 L 815 1307 L 301 440 L 866 440 Z" unicode="Æ" />
<glyph horiz-adv-x="1343" d="M 1200 150 L 1217 86 C 1169 55 1107 30 1033 10 C 958 -10 872 -20 774 -20 C 767 -20 760 -19 753 -19 C 745 -19 739 -18 733 -18 L 733 -57 C 733 -64 735 -71 739 -78 C 743 -84 748 -90 754 -94 L 819 -152 C 832 -164 848 -182 867 -206 C 885 -230 895 -259 895 -293 C 895 -339 876 -376 838 -406 C 800 -436 748 -451 682 -451 C 653 -451 624 -447 596 -440 C 568 -433 544 -422 526 -406 L 545 -358 C 559 -371 579 -381 606 -387 C 633 -393 659 -397 684 -397 C 728 -397 764 -387 792 -368 C 820 -349 834 -323 834 -291 C 834 -265 826 -244 810 -226 C 794 -208 779 -193 766 -182 L 705 -131 C 697 -125 691 -116 685 -105 C 679 -94 676 -84 676 -76 L 676 -14 C 495 7 357 85 261 220 C 165 354 117 520 117 717 C 117 920 174 1096 290 1245 C 406 1393 571 1468 786 1468 C 881 1468 965 1458 1037 1438 C 1109 1418 1169 1392 1217 1362 L 1200 1296 C 1152 1326 1093 1353 1025 1375 C 956 1397 876 1409 784 1409 C 589 1409 441 1340 341 1204 C 240 1068 190 906 190 719 C 190 532 238 372 336 239 C 434 105 580 39 776 39 C 870 39 952 49 1022 70 C 1092 91 1152 118 1200 150 Z" unicode="Ç" />
<glyph horiz-adv-x="1307" d="M 205 1446 L 1147 1446 L 1147 1386 L 276 1386 L 276 784 L 1055 784 L 1055 725 L 276 725 L 276 59 L 1167 59 L 1167 0 L 205 0 L 205 1446 Z M 448 1902 L 518 1902 L 764 1627 L 764 1603 L 731 1603 L 448 1871 L 448 1902 Z" unicode="È" />
<glyph horiz-adv-x="1307" d="M 205 1446 L 1147 1446 L 1147 1386 L 276 1386 L 276 784 L 1055 784 L 1055 725 L 276 725 L 276 59 L 1167 59 L 1167 0 L 205 0 L 205 1446 Z M 852 1902 L 923 1902 L 923 1871 L 639 1603 L 606 1603 L 606 1627 L 852 1902 Z" unicode="É" />
<glyph horiz-adv-x="1307" d="M 205 1446 L 1147 1446 L 1147 1386 L 276 1386 L 276 784 L 1055 784 L 1055 725 L 276 725 L 276 59 L 1167 59 L 1167 0 L 205 0 L 205 1446 Z M 655 1902 L 712 1902 L 944 1625 L 944 1603 L 905 1603 L 688 1845 L 682 1845 L 465 1603 L 428 1603 L 428 1625 L 655 1902 Z" unicode="Ê" />
<glyph horiz-adv-x="1307" d="M 205 1446 L 1147 1446 L 1147 1386 L 276 1386 L 276 784 L 1055 784 L 1055 725 L 276 725 L 276 59 L 1167 59 L 1167 0 L 205 0 L 205 1446 Z M 434 1818 L 508 1818 L 508 1644 L 434 1644 L 434 1818 Z M 864 1818 L 938 1818 L 938 1644 L 864 1644 L 864 1818 Z" unicode="Ë" />
<glyph horiz-adv-x="481" d="M 4 1903 L 76 1903 L 322 1628 L 322 1604 L 289 1604 L 4 1872 L 4 1903 Z M 205 1446 L 276 1446 L 276 0 L 205 0 L 205 1446 Z" unicode="Ì" />
<glyph horiz-adv-x="481" d="M 406 1903 L 477 1903 L 477 1872 L 193 1604 L 160 1604 L 160 1628 L 406 1903 Z M 205 1446 L 276 1446 L 276 0 L 205 0 L 205 1446 Z" unicode="Í" />
<glyph horiz-adv-x="481" d="M 211 1903 L 268 1903 L 498 1626 L 498 1604 L 461 1604 L 242 1845 L 238 1845 L 18 1604 L -16 1604 L -16 1626 L 211 1903 Z M 205 1446 L 276 1446 L 276 0 L 205 0 L 205 1446 Z" unicode="Î" />
<glyph horiz-adv-x="481" d="M -12 1819 L 61 1819 L 61 1645 L -12 1645 L -12 1819 Z M 205 1446 L 276 1446 L 276 0 L 205 0 L 205 1446 Z M 418 1819 L 492 1819 L 492 1645 L 418 1645 L 418 1819 Z" unicode="Ï" />
<glyph horiz-adv-x="1530" d="M 59 729 L 59 786 L 246 786 L 246 1446 L 688 1446 C 886 1446 1055 1390 1193 1280 C 1331 1169 1401 987 1401 733 C 1401 465 1331 276 1192 166 C 1053 55 885 0 688 0 L 246 0 L 246 729 L 59 729 Z M 694 1386 L 317 1386 L 317 786 L 768 786 L 768 729 L 317 729 L 317 59 L 694 59 C 882 59 1035 114 1152 225 C 1268 336 1327 505 1327 733 C 1327 945 1269 1107 1153 1219 C 1037 1330 884 1386 694 1386 Z" unicode="Ð" />
<glyph horiz-adv-x="1470" d="M 205 0 L 205 1446 L 307 1446 L 1137 184 L 1196 68 L 1204 68 L 1196 195 L 1196 1446 L 1266 1446 L 1266 0 L 1165 0 L 334 1262 L 274 1376 L 266 1376 L 274 1249 L 274 0 L 205 0 Z M 409 1664 L 487 1742 C 513 1767 536 1784 555 1793 C 574 1801 593 1806 612 1806 C 633 1806 652 1801 669 1793 C 686 1785 705 1770 727 1750 L 796 1687 C 808 1676 820 1667 832 1661 C 843 1655 855 1652 868 1652 C 881 1652 895 1655 910 1663 C 924 1671 943 1686 966 1709 L 1024 1765 L 1065 1738 L 987 1660 C 961 1634 939 1617 919 1609 C 899 1601 880 1597 862 1597 C 841 1597 822 1601 805 1609 C 787 1617 768 1631 747 1652 L 680 1715 C 667 1725 654 1734 642 1740 C 630 1746 618 1750 606 1750 C 592 1750 578 1746 564 1738 C 549 1730 530 1715 508 1693 L 450 1638 L 409 1664 Z" unicode="Ñ" />
<glyph horiz-adv-x="1542" d="M 770 1468 C 953 1468 1108 1406 1235 1282 C 1361 1158 1425 973 1425 725 C 1425 479 1361 293 1234 168 C 1107 42 952 -20 770 -20 C 585 -20 430 42 305 168 C 179 293 117 479 117 725 C 117 971 180 1157 306 1281 C 432 1405 587 1468 770 1468 Z M 770 1409 C 598 1409 459 1349 351 1230 C 243 1111 190 943 190 725 C 190 512 243 344 351 222 C 459 100 598 39 770 39 C 943 39 1083 98 1191 217 C 1298 335 1352 505 1352 725 C 1352 939 1298 1107 1191 1228 C 1083 1348 943 1409 770 1409 Z M 530 1902 L 600 1902 L 846 1627 L 846 1603 L 813 1603 L 530 1871 L 530 1902 Z" unicode="Ò" />
<glyph horiz-adv-x="1542" d="M 770 1468 C 953 1468 1108 1406 1235 1282 C 1361 1158 1425 973 1425 725 C 1425 479 1361 293 1234 168 C 1107 42 952 -20 770 -20 C 585 -20 430 42 305 168 C 179 293 117 479 117 725 C 117 971 180 1157 306 1281 C 432 1405 587 1468 770 1468 Z M 770 1409 C 598 1409 459 1349 351 1230 C 243 1111 190 943 190 725 C 190 512 243 344 351 222 C 459 100 598 39 770 39 C 943 39 1083 98 1191 217 C 1298 335 1352 505 1352 725 C 1352 939 1298 1107 1191 1228 C 1083 1348 943 1409 770 1409 Z M 934 1902 L 1005 1902 L 1005 1871 L 721 1603 L 688 1603 L 688 1627 L 934 1902 Z" unicode="Ó" />
<glyph horiz-adv-x="1542" d="M 770 1468 C 953 1468 1108 1406 1235 1282 C 1361 1158 1425 973 1425 725 C 1425 479 1361 293 1234 168 C 1107 42 952 -20 770 -20 C 585 -20 430 42 305 168 C 179 293 117 479 117 725 C 117 971 180 1157 306 1281 C 432 1405 587 1468 770 1468 Z M 770 1409 C 598 1409 459 1349 351 1230 C 243 1111 190 943 190 725 C 190 512 243 344 351 222 C 459 100 598 39 770 39 C 943 39 1083 98 1191 217 C 1298 335 1352 505 1352 725 C 1352 939 1298 1107 1191 1228 C 1083 1348 943 1409 770 1409 Z M 737 1902 L 794 1902 L 1026 1625 L 1026 1603 L 987 1603 L 770 1845 L 764 1845 L 547 1603 L 510 1603 L 510 1625 L 737 1902 Z" unicode="Ô" />
<glyph horiz-adv-x="1542" d="M 770 1468 C 953 1468 1108 1406 1235 1282 C 1361 1158 1425 973 1425 725 C 1425 479 1361 293 1234 168 C 1107 42 952 -20 770 -20 C 585 -20 430 42 305 168 C 179 293 117 479 117 725 C 117 971 180 1157 306 1281 C 432 1405 587 1468 770 1468 Z M 770 1409 C 598 1409 459 1349 351 1230 C 243 1111 190 943 190 725 C 190 512 243 344 351 222 C 459 100 598 39 770 39 C 943 39 1083 98 1191 217 C 1298 335 1352 505 1352 725 C 1352 939 1298 1107 1191 1228 C 1083 1348 943 1409 770 1409 Z M 444 1664 L 522 1742 C 548 1767 571 1784 590 1793 C 609 1801 628 1806 647 1806 C 668 1806 687 1801 704 1793 C 721 1785 740 1770 762 1750 L 831 1687 C 843 1676 855 1667 867 1661 C 878 1655 890 1652 903 1652 C 916 1652 930 1655 945 1663 C 959 1671 978 1686 1001 1709 L 1059 1765 L 1100 1738 L 1022 1660 C 996 1634 974 1617 954 1609 C 934 1601 915 1597 897 1597 C 876 1597 857 1601 840 1609 C 822 1617 803 1631 782 1652 L 715 1715 C 702 1725 689 1734 677 1740 C 665 1746 653 1750 641 1750 C 627 1750 613 1746 599 1738 C 584 1730 565 1715 543 1693 L 485 1638 L 444 1664 Z" unicode="Õ" />
<glyph horiz-adv-x="1542" d="M 770 1468 C 953 1468 1108 1406 1235 1282 C 1361 1158 1425 973 1425 725 C 1425 479 1361 293 1234 168 C 1107 42 952 -20 770 -20 C 585 -20 430 42 305 168 C 179 293 117 479 117 725 C 117 971 180 1157 306 1281 C 432 1405 587 1468 770 1468 Z M 770 1409 C 598 1409 459 1349 351 1230 C 243 1111 190 943 190 725 C 190 512 243 344 351 222 C 459 100 598 39 770 39 C 943 39 1083 98 1191 217 C 1298 335 1352 505 1352 725 C 1352 939 1298 1107 1191 1228 C 1083 1348 943 1409 770 1409 Z M 516 1818 L 590 1818 L 590 1644 L 516 1644 L 516 1818 Z M 946 1818 L 1020 1818 L 1020 1644 L 946 1644 L 946 1818 Z" unicode="Ö" />
<glyph horiz-adv-x="1167" d="M 123 1077 L 584 616 L 1044 1077 L 1090 1032 L 629 571 L 1092 109 L 1044 63 L 582 526 L 123 66 L 78 111 L 539 569 L 78 1030 L 123 1077 Z" unicode="×" />
<glyph horiz-adv-x="1542" d="M 1188 1581 L 1243 1581 L 1135 1366 C 1222 1308 1292 1226 1345 1119 C 1398 1012 1425 881 1425 725 C 1425 479 1361 293 1234 168 C 1107 42 952 -20 770 -20 C 717 -20 666 -15 617 -5 C 567 5 521 20 477 41 L 391 -137 L 336 -137 L 434 63 C 338 119 262 202 204 313 C 146 424 117 561 117 725 C 117 971 180 1157 306 1281 C 432 1405 587 1468 770 1468 C 829 1468 886 1461 940 1449 C 994 1437 1046 1418 1094 1393 L 1188 1581 Z M 506 100 L 504 100 C 542 79 584 64 629 54 C 674 44 721 39 770 39 C 943 39 1083 98 1191 217 C 1298 335 1352 505 1352 725 C 1352 859 1330 975 1286 1075 C 1242 1174 1182 1251 1106 1307 L 506 100 Z M 770 1409 C 598 1409 459 1349 351 1230 C 243 1111 190 943 190 725 C 190 584 214 462 263 360 C 311 257 378 179 463 125 L 1063 1333 C 1021 1357 975 1376 926 1389 C 877 1402 825 1409 770 1409 Z" unicode="Ø" />
<glyph horiz-adv-x="1401" d="M 182 1446 L 254 1446 L 254 483 C 254 375 278 274 327 180 C 375 86 500 39 702 39 C 902 39 1027 86 1075 180 C 1123 274 1147 375 1147 483 L 1147 1446 L 1219 1446 L 1219 477 C 1219 359 1190 246 1132 140 C 1074 33 931 -20 702 -20 C 473 -20 329 33 270 140 C 211 246 182 359 182 477 L 182 1446 Z M 456 1902 L 526 1902 L 772 1627 L 772 1603 L 739 1603 L 456 1871 L 456 1902 Z" unicode="Ù" />
<glyph horiz-adv-x="1401" d="M 182 1446 L 254 1446 L 254 483 C 254 375 278 274 327 180 C 375 86 500 39 702 39 C 902 39 1027 86 1075 180 C 1123 274 1147 375 1147 483 L 1147 1446 L 1219 1446 L 1219 477 C 1219 359 1190 246 1132 140 C 1074 33 931 -20 702 -20 C 473 -20 329 33 270 140 C 211 246 182 359 182 477 L 182 1446 Z M 860 1902 L 931 1902 L 931 1871 L 647 1603 L 614 1603 L 614 1627 L 860 1902 Z" unicode="Ú" />
<glyph horiz-adv-x="1401" d="M 182 1446 L 254 1446 L 254 483 C 254 375 278 274 327 180 C 375 86 500 39 702 39 C 902 39 1027 86 1075 180 C 1123 274 1147 375 1147 483 L 1147 1446 L 1219 1446 L 1219 477 C 1219 359 1190 246 1132 140 C 1074 33 931 -20 702 -20 C 473 -20 329 33 270 140 C 211 246 182 359 182 477 L 182 1446 Z M 663 1902 L 720 1902 L 952 1625 L 952 1603 L 913 1603 L 696 1845 L 690 1845 L 473 1603 L 436 1603 L 436 1625 L 663 1902 Z" unicode="Û" />
<glyph horiz-adv-x="1401" d="M 182 1446 L 254 1446 L 254 483 C 254 375 278 274 327 180 C 375 86 500 39 702 39 C 902 39 1027 86 1075 180 C 1123 274 1147 375 1147 483 L 1147 1446 L 1219 1446 L 1219 477 C 1219 359 1190 246 1132 140 C 1074 33 931 -20 702 -20 C 473 -20 329 33 270 140 C 211 246 182 359 182 477 L 182 1446 Z M 442 1818 L 516 1818 L 516 1644 L 442 1644 L 442 1818 Z M 872 1818 L 946 1818 L 946 1644 L 872 1644 L 872 1818 Z" unicode="Ü" />
<glyph horiz-adv-x="1116" d="M 25 1446 L 111 1446 L 561 604 L 1012 1446 L 1092 1446 L 594 537 L 594 0 L 522 0 L 522 537 L 25 1446 Z M 727 1902 L 798 1902 L 798 1871 L 514 1603 L 481 1603 L 481 1627 L 727 1902 Z" unicode="Ý" />
<glyph horiz-adv-x="1319" d="M 205 1446 L 276 1446 L 276 1151 L 752 1151 C 847 1151 926 1139 988 1117 C 1050 1095 1100 1064 1137 1024 C 1171 987 1196 943 1213 893 C 1230 843 1239 789 1239 731 C 1239 667 1229 608 1209 554 C 1189 500 1160 454 1122 416 C 1086 380 1039 352 982 332 C 925 312 848 303 752 303 L 276 303 L 276 0 L 205 0 L 205 1446 Z M 276 1092 L 276 362 L 758 362 C 837 362 901 370 949 387 C 997 403 1036 427 1067 457 C 1099 488 1124 527 1140 574 C 1156 621 1165 673 1165 731 C 1165 782 1158 829 1144 873 C 1130 916 1107 953 1077 985 C 1046 1017 1005 1043 954 1063 C 902 1082 837 1092 758 1092 L 276 1092 Z" unicode="Þ" />
<glyph horiz-adv-x="1087" d="M 166 0 L 166 1108 C 166 1254 199 1359 265 1425 C 331 1491 417 1524 524 1524 C 644 1524 737 1490 803 1422 C 868 1354 901 1272 901 1178 C 901 1104 884 1043 852 993 C 819 943 786 902 754 868 C 736 852 724 839 716 829 C 708 819 705 813 705 809 C 705 803 713 791 729 773 C 745 755 775 726 819 684 C 871 633 917 581 958 528 C 999 474 1020 402 1020 311 C 1020 197 985 113 917 61 C 849 8 769 -18 678 -18 C 647 -18 616 -16 585 -12 C 554 -8 529 -4 510 0 L 510 57 C 531 53 556 48 586 44 C 615 39 646 37 678 37 C 751 37 815 57 870 99 C 924 141 952 209 952 305 C 952 388 932 453 894 501 C 856 549 814 595 770 639 C 725 683 692 716 671 740 C 649 764 639 786 639 807 C 639 822 644 837 656 851 C 667 865 683 883 705 905 C 735 935 764 970 791 1010 C 817 1050 831 1103 831 1167 C 831 1246 805 1315 755 1375 C 704 1434 628 1464 526 1464 C 429 1464 356 1433 307 1372 C 257 1310 233 1218 233 1096 L 233 0 L 166 0 Z" unicode="ß" />
<glyph horiz-adv-x="1065" d="M 915 0 L 852 0 L 852 211 C 798 128 732 69 656 35 C 580 1 505 -16 432 -16 C 328 -16 246 10 186 63 C 126 115 96 187 96 279 C 96 380 147 462 249 525 C 351 587 551 620 848 623 L 848 700 C 848 812 823 892 773 939 C 723 986 648 1010 549 1010 C 474 1010 405 1000 342 981 C 279 962 230 942 195 922 L 168 975 C 198 995 248 1016 317 1037 C 386 1058 464 1069 551 1069 C 667 1069 757 1041 820 985 C 883 929 915 832 915 694 L 915 0 Z M 440 39 C 570 39 671 76 742 150 C 812 224 848 279 848 315 L 848 578 C 572 570 390 540 300 487 C 210 434 166 366 166 283 C 166 207 190 148 238 104 C 286 60 353 39 440 39 Z M 300 1530 L 370 1530 L 616 1255 L 616 1231 L 583 1231 L 300 1499 L 300 1530 Z" unicode="à" />
<glyph horiz-adv-x="1065" d="M 915 0 L 852 0 L 852 211 C 798 128 732 69 656 35 C 580 1 505 -16 432 -16 C 328 -16 246 10 186 63 C 126 115 96 187 96 279 C 96 380 147 462 249 525 C 351 587 551 620 848 623 L 848 700 C 848 812 823 892 773 939 C 723 986 648 1010 549 1010 C 474 1010 405 1000 342 981 C 279 962 230 942 195 922 L 168 975 C 198 995 248 1016 317 1037 C 386 1058 464 1069 551 1069 C 667 1069 757 1041 820 985 C 883 929 915 832 915 694 L 915 0 Z M 440 39 C 570 39 671 76 742 150 C 812 224 848 279 848 315 L 848 578 C 572 570 390 540 300 487 C 210 434 166 366 166 283 C 166 207 190 148 238 104 C 286 60 353 39 440 39 Z M 704 1530 L 775 1530 L 775 1499 L 491 1231 L 458 1231 L 458 1255 L 704 1530 Z" unicode="á" />
<glyph horiz-adv-x="1065" d="M 915 0 L 852 0 L 852 211 C 798 128 732 69 656 35 C 580 1 505 -16 432 -16 C 328 -16 246 10 186 63 C 126 115 96 187 96 279 C 96 380 147 462 249 525 C 351 587 551 620 848 623 L 848 700 C 848 812 823 892 773 939 C 723 986 648 1010 549 1010 C 474 1010 405 1000 342 981 C 279 962 230 942 195 922 L 168 975 C 198 995 248 1016 317 1037 C 386 1058 464 1069 551 1069 C 667 1069 757 1041 820 985 C 883 929 915 832 915 694 L 915 0 Z M 440 39 C 570 39 671 76 742 150 C 812 224 848 279 848 315 L 848 578 C 572 570 390 540 300 487 C 210 434 166 366 166 283 C 166 207 190 148 238 104 C 286 60 353 39 440 39 Z M 507 1530 L 564 1530 L 796 1253 L 796 1231 L 757 1231 L 540 1473 L 534 1473 L 317 1231 L 280 1231 L 280 1253 L 507 1530 Z" unicode="â" />
<glyph horiz-adv-x="1065" d="M 915 0 L 852 0 L 852 211 C 798 128 732 69 656 35 C 580 1 505 -16 432 -16 C 328 -16 246 10 186 63 C 126 115 96 187 96 279 C 96 380 147 462 249 525 C 351 587 551 620 848 623 L 848 700 C 848 812 823 892 773 939 C 723 986 648 1010 549 1010 C 474 1010 405 1000 342 981 C 279 962 230 942 195 922 L 168 975 C 198 995 248 1016 317 1037 C 386 1058 464 1069 551 1069 C 667 1069 757 1041 820 985 C 883 929 915 832 915 694 L 915 0 Z M 440 39 C 570 39 671 76 742 150 C 812 224 848 279 848 315 L 848 578 C 572 570 390 540 300 487 C 210 434 166 366 166 283 C 166 207 190 148 238 104 C 286 60 353 39 440 39 Z M 214 1292 L 292 1370 C 318 1395 341 1412 360 1421 C 379 1429 398 1434 417 1434 C 438 1434 457 1429 474 1421 C 491 1413 510 1398 532 1378 L 601 1315 C 613 1304 625 1295 637 1289 C 648 1283 660 1280 673 1280 C 686 1280 700 1283 715 1291 C 729 1299 748 1314 771 1337 L 829 1393 L 870 1366 L 792 1288 C 766 1262 744 1245 724 1237 C 704 1229 685 1225 667 1225 C 646 1225 627 1229 610 1237 C 592 1245 573 1259 552 1280 L 485 1343 C 472 1353 459 1362 447 1368 C 435 1374 423 1378 411 1378 C 397 1378 383 1374 369 1366 C 354 1358 335 1343 313 1321 L 255 1266 L 214 1292 Z" unicode="ã" />
<glyph horiz-adv-x="1065" d="M 915 0 L 852 0 L 852 211 C 798 128 732 69 656 35 C 580 1 505 -16 432 -16 C 328 -16 246 10 186 63 C 126 115 96 187 96 279 C 96 380 147 462 249 525 C 351 587 551 620 848 623 L 848 700 C 848 812 823 892 773 939 C 723 986 648 1010 549 1010 C 474 1010 405 1000 342 981 C 279 962 230 942 195 922 L 168 975 C 198 995 248 1016 317 1037 C 386 1058 464 1069 551 1069 C 667 1069 757 1041 820 985 C 883 929 915 832 915 694 L 915 0 Z M 440 39 C 570 39 671 76 742 150 C 812 224 848 279 848 315 L 848 578 C 572 570 390 540 300 487 C 210 434 166 366 166 283 C 166 207 190 148 238 104 C 286 60 353 39 440 39 Z M 286 1446 L 360 1446 L 360 1272 L 286 1272 L 286 1446 Z M 716 1446 L 790 1446 L 790 1272 L 716 1272 L 716 1446 Z" unicode="ä" />
<glyph horiz-adv-x="1065" d="M 915 0 L 852 0 L 852 211 C 798 128 732 69 656 35 C 580 1 505 -16 432 -16 C 328 -16 246 10 186 63 C 126 115 96 187 96 279 C 96 380 147 462 249 525 C 351 587 551 620 848 623 L 848 700 C 848 812 823 892 773 939 C 723 986 648 1010 549 1010 C 474 1010 405 1000 342 981 C 279 962 230 942 195 922 L 168 975 C 198 995 248 1016 317 1037 C 386 1058 464 1069 551 1069 C 667 1069 757 1041 820 985 C 883 929 915 832 915 694 L 915 0 Z M 440 39 C 570 39 671 76 742 150 C 812 224 848 279 848 315 L 848 578 C 572 570 390 540 300 487 C 210 434 166 366 166 283 C 166 207 190 148 238 104 C 286 60 353 39 440 39 Z M 323 1434 C 323 1490 344 1539 386 1580 C 428 1621 480 1642 540 1642 C 600 1642 650 1621 692 1580 C 734 1539 755 1490 755 1434 C 755 1376 734 1328 692 1288 C 650 1248 600 1229 540 1229 C 480 1229 428 1248 386 1288 C 344 1328 323 1376 323 1434 Z M 370 1434 C 370 1388 386 1350 420 1318 C 453 1286 493 1270 540 1270 C 586 1270 626 1286 659 1318 C 691 1350 708 1388 708 1434 C 708 1480 691 1519 659 1552 C 626 1585 586 1602 540 1602 C 493 1602 453 1585 420 1552 C 386 1519 370 1480 370 1434 Z" unicode="å" />
<glyph horiz-adv-x="1853" d="M 430 -16 C 326 -16 244 10 185 63 C 125 115 96 187 96 279 C 96 380 147 462 249 525 C 351 587 551 620 848 623 L 848 700 C 848 812 823 892 773 939 C 723 986 648 1010 549 1010 C 474 1010 405 1000 342 981 C 279 962 230 942 195 922 L 168 975 C 198 995 248 1016 317 1037 C 386 1058 464 1069 551 1069 C 655 1069 738 1044 801 996 C 863 948 897 866 901 750 C 928 846 980 924 1056 982 C 1132 1040 1223 1069 1329 1069 C 1465 1069 1569 1026 1642 941 C 1714 855 1751 746 1751 614 C 1751 603 1750 592 1750 581 C 1749 569 1747 552 1745 530 L 915 530 C 913 390 946 273 1016 181 C 1086 89 1198 43 1352 43 C 1420 43 1481 53 1537 75 C 1592 96 1644 125 1694 162 L 1720 106 C 1670 66 1615 36 1555 15 C 1495 -5 1428 -16 1352 -16 C 1217 -16 1109 16 1029 81 C 949 145 898 231 877 338 C 849 228 795 141 716 78 C 637 15 542 -16 430 -16 Z M 440 39 C 570 39 671 82 742 170 C 812 257 848 360 848 479 L 848 578 C 572 570 390 540 300 487 C 210 434 166 366 166 283 C 166 207 190 148 238 104 C 286 60 353 39 440 39 Z M 920 586 L 1681 586 C 1690 706 1663 807 1601 889 C 1538 971 1446 1012 1325 1012 C 1210 1012 1116 973 1044 895 C 971 817 930 714 920 586 Z" unicode="æ" />
<glyph horiz-adv-x="983" d="M 870 125 L 889 66 C 849 40 804 19 754 5 C 704 -8 647 -16 582 -16 C 572 -16 564 -15 556 -15 C 548 -14 540 -14 532 -14 L 532 -57 C 532 -64 534 -71 539 -78 C 543 -84 548 -90 553 -94 L 618 -152 C 631 -164 647 -182 666 -206 C 684 -230 694 -259 694 -293 C 694 -339 675 -376 637 -406 C 599 -436 547 -451 481 -451 C 452 -451 423 -447 395 -440 C 367 -433 344 -422 326 -406 L 344 -358 C 358 -371 379 -381 406 -387 C 432 -393 458 -397 483 -397 C 527 -397 563 -387 591 -368 C 619 -349 633 -323 633 -291 C 633 -265 625 -244 609 -226 C 593 -208 578 -193 565 -182 L 504 -131 C 496 -125 490 -116 484 -105 C 478 -94 475 -84 475 -76 L 475 -6 C 350 15 258 73 198 169 C 138 265 109 380 109 516 C 109 677 149 809 230 913 C 311 1017 430 1069 586 1069 C 648 1069 704 1061 754 1047 C 804 1032 849 1012 889 987 L 870 928 C 832 953 790 973 742 988 C 694 1002 642 1010 586 1010 C 451 1010 349 963 281 871 C 212 778 178 660 178 518 C 178 387 209 275 272 182 C 335 89 440 43 586 43 C 644 43 696 50 743 64 C 789 78 832 98 870 125 Z" unicode="ç" />
<glyph horiz-adv-x="1114" d="M 1006 530 L 178 530 L 178 514 C 178 384 211 273 279 181 C 346 89 457 43 612 43 C 680 43 742 53 798 75 C 853 96 905 125 954 162 L 981 106 C 931 66 876 36 816 15 C 756 -5 688 -16 612 -16 C 438 -16 311 34 230 134 C 149 234 109 359 109 510 C 109 673 151 807 237 912 C 322 1016 439 1069 588 1069 C 725 1069 830 1026 903 941 C 975 855 1012 746 1012 614 C 1012 603 1011 592 1011 581 C 1010 569 1008 552 1006 530 Z M 586 1012 C 471 1012 378 973 306 895 C 234 817 193 714 182 586 L 942 586 C 948 706 921 807 859 889 C 797 971 706 1012 586 1012 Z M 341 1530 L 411 1530 L 657 1255 L 657 1231 L 624 1231 L 341 1499 L 341 1530 Z" unicode="è" />
<glyph horiz-adv-x="1114" d="M 1006 530 L 178 530 L 178 514 C 178 384 211 273 279 181 C 346 89 457 43 612 43 C 680 43 742 53 798 75 C 853 96 905 125 954 162 L 981 106 C 931 66 876 36 816 15 C 756 -5 688 -16 612 -16 C 438 -16 311 34 230 134 C 149 234 109 359 109 510 C 109 673 151 807 237 912 C 322 1016 439 1069 588 1069 C 725 1069 830 1026 903 941 C 975 855 1012 746 1012 614 C 1012 603 1011 592 1011 581 C 1010 569 1008 552 1006 530 Z M 586 1012 C 471 1012 378 973 306 895 C 234 817 193 714 182 586 L 942 586 C 948 706 921 807 859 889 C 797 971 706 1012 586 1012 Z M 745 1530 L 816 1530 L 816 1499 L 532 1231 L 499 1231 L 499 1255 L 745 1530 Z" unicode="é" />
<glyph horiz-adv-x="1114" d="M 1006 530 L 178 530 L 178 514 C 178 384 211 273 279 181 C 346 89 457 43 612 43 C 680 43 742 53 798 75 C 853 96 905 125 954 162 L 981 106 C 931 66 876 36 816 15 C 756 -5 688 -16 612 -16 C 438 -16 311 34 230 134 C 149 234 109 359 109 510 C 109 673 151 807 237 912 C 322 1016 439 1069 588 1069 C 725 1069 830 1026 903 941 C 975 855 1012 746 1012 614 C 1012 603 1011 592 1011 581 C 1010 569 1008 552 1006 530 Z M 586 1012 C 471 1012 378 973 306 895 C 234 817 193 714 182 586 L 942 586 C 948 706 921 807 859 889 C 797 971 706 1012 586 1012 Z M 548 1530 L 605 1530 L 837 1253 L 837 1231 L 798 1231 L 581 1473 L 575 1473 L 358 1231 L 321 1231 L 321 1253 L 548 1530 Z" unicode="ê" />
<glyph horiz-adv-x="1114" d="M 1006 530 L 178 530 L 178 514 C 178 384 211 273 279 181 C 346 89 457 43 612 43 C 680 43 742 53 798 75 C 853 96 905 125 954 162 L 981 106 C 931 66 876 36 816 15 C 756 -5 688 -16 612 -16 C 438 -16 311 34 230 134 C 149 234 109 359 109 510 C 109 673 151 807 237 912 C 322 1016 439 1069 588 1069 C 725 1069 830 1026 903 941 C 975 855 1012 746 1012 614 C 1012 603 1011 592 1011 581 C 1010 569 1008 552 1006 530 Z M 586 1012 C 471 1012 378 973 306 895 C 234 817 193 714 182 586 L 942 586 C 948 706 921 807 859 889 C 797 971 706 1012 586 1012 Z M 327 1446 L 401 1446 L 401 1272 L 327 1272 L 327 1446 Z M 757 1446 L 831 1446 L 831 1272 L 757 1272 L 757 1446 Z" unicode="ë" />
<glyph horiz-adv-x="436" d="M -18 1530 L 53 1530 L 297 1255 L 297 1231 L 266 1231 L -18 1499 L -18 1530 Z M 184 1053 L 252 1053 L 252 0 L 184 0 L 184 1053 Z" unicode="ì" />
<glyph horiz-adv-x="436" d="M 385 1530 L 457 1530 L 457 1499 L 172 1231 L 139 1231 L 139 1255 L 385 1530 Z M 184 1053 L 252 1053 L 252 0 L 184 0 L 184 1053 Z" unicode="í" />
<glyph horiz-adv-x="436" d="M 188 1530 L 246 1530 L 475 1253 L 475 1231 L 438 1231 L 221 1473 L 215 1473 L -4 1231 L -39 1231 L -39 1253 L 188 1530 Z M 184 1053 L 252 1053 L 252 0 L 184 0 L 184 1053 Z" unicode="î" />
<glyph horiz-adv-x="436" d="M -33 1446 L 41 1446 L 41 1272 L -33 1272 L -33 1446 Z M 184 1053 L 252 1053 L 252 0 L 184 0 L 184 1053 Z M 395 1446 L 469 1446 L 469 1272 L 395 1272 L 395 1446 Z" unicode="ï" />
<glyph horiz-adv-x="1143" d="M 1034 532 C 1034 382 994 253 914 145 C 834 37 721 -16 573 -16 C 429 -16 316 34 233 135 C 150 235 109 366 109 526 C 109 676 149 804 230 910 C 310 1016 424 1069 571 1069 C 636 1069 694 1056 746 1030 C 798 1004 844 958 885 891 C 847 984 795 1070 730 1148 C 665 1226 599 1294 532 1350 L 254 1239 L 254 1288 L 492 1382 C 470 1400 446 1420 418 1441 C 390 1461 364 1479 342 1495 L 403 1524 C 429 1504 455 1485 480 1465 C 505 1445 529 1426 553 1407 L 786 1497 L 786 1448 L 592 1374 C 734 1249 844 1116 920 974 C 996 832 1034 685 1034 532 Z M 573 1010 C 443 1010 345 962 278 868 C 211 774 178 660 178 528 C 178 390 211 274 279 182 C 346 89 444 43 573 43 C 703 43 800 91 866 187 C 932 283 965 396 965 528 C 965 664 931 779 864 871 C 797 963 700 1010 573 1010 Z" unicode="ð" />
<glyph horiz-adv-x="1133" d="M 983 0 L 915 0 L 915 684 C 915 738 908 784 896 824 C 884 864 864 897 838 924 C 811 950 778 971 739 987 C 699 1002 654 1010 602 1010 C 488 1010 401 978 341 916 C 281 854 252 808 252 780 L 252 0 L 184 0 L 184 1053 L 250 1053 L 250 868 C 286 933 337 983 404 1017 C 471 1051 540 1069 612 1069 C 672 1069 725 1059 771 1041 C 817 1023 857 998 889 967 C 920 935 943 895 959 848 C 975 800 983 743 983 676 L 983 0 Z M 259 1292 L 337 1370 C 363 1395 386 1412 405 1421 C 424 1429 443 1434 462 1434 C 483 1434 502 1429 519 1421 C 536 1413 555 1398 577 1378 L 646 1315 C 658 1304 670 1295 682 1289 C 693 1283 705 1280 718 1280 C 731 1280 745 1283 760 1291 C 774 1299 793 1314 816 1337 L 874 1393 L 915 1366 L 837 1288 C 811 1262 789 1245 769 1237 C 749 1229 730 1225 712 1225 C 691 1225 672 1229 655 1237 C 637 1245 618 1259 597 1280 L 530 1343 C 517 1353 504 1362 492 1368 C 480 1374 468 1378 456 1378 C 442 1378 428 1374 414 1366 C 399 1358 380 1343 358 1321 L 300 1266 L 259 1292 Z" unicode="ñ" />
<glyph horiz-adv-x="1143" d="M 573 1069 C 715 1069 828 1018 910 917 C 992 815 1034 686 1034 528 C 1034 381 994 254 914 146 C 834 38 721 -16 573 -16 C 429 -16 316 34 233 134 C 150 234 109 366 109 528 C 109 678 149 805 230 911 C 310 1016 425 1069 573 1069 Z M 573 1010 C 443 1010 345 963 278 869 C 211 775 178 662 178 528 C 178 390 211 274 279 182 C 346 89 444 43 573 43 C 703 43 800 91 866 187 C 932 283 965 396 965 528 C 965 664 931 778 864 871 C 797 963 700 1010 573 1010 Z M 335 1530 L 405 1530 L 651 1255 L 651 1231 L 618 1231 L 335 1499 L 335 1530 Z" unicode="ò" />
<glyph horiz-adv-x="1143" d="M 573 1069 C 715 1069 828 1018 910 917 C 992 815 1034 686 1034 528 C 1034 381 994 254 914 146 C 834 38 721 -16 573 -16 C 429 -16 316 34 233 134 C 150 234 109 366 109 528 C 109 678 149 805 230 911 C 310 1016 425 1069 573 1069 Z M 573 1010 C 443 1010 345 963 278 869 C 211 775 178 662 178 528 C 178 390 211 274 279 182 C 346 89 444 43 573 43 C 703 43 800 91 866 187 C 932 283 965 396 965 528 C 965 664 931 778 864 871 C 797 963 700 1010 573 1010 Z M 739 1530 L 810 1530 L 810 1499 L 526 1231 L 493 1231 L 493 1255 L 739 1530 Z" unicode="ó" />
<glyph horiz-adv-x="1143" d="M 573 1069 C 715 1069 828 1018 910 917 C 992 815 1034 686 1034 528 C 1034 381 994 254 914 146 C 834 38 721 -16 573 -16 C 429 -16 316 34 233 134 C 150 234 109 366 109 528 C 109 678 149 805 230 911 C 310 1016 425 1069 573 1069 Z M 573 1010 C 443 1010 345 963 278 869 C 211 775 178 662 178 528 C 178 390 211 274 279 182 C 346 89 444 43 573 43 C 703 43 800 91 866 187 C 932 283 965 396 965 528 C 965 664 931 778 864 871 C 797 963 700 1010 573 1010 Z M 542 1530 L 599 1530 L 831 1253 L 831 1231 L 792 1231 L 575 1473 L 569 1473 L 352 1231 L 315 1231 L 315 1253 L 542 1530 Z" unicode="ô" />
<glyph horiz-adv-x="1143" d="M 573 1069 C 715 1069 828 1018 910 917 C 992 815 1034 686 1034 528 C 1034 381 994 254 914 146 C 834 38 721 -16 573 -16 C 429 -16 316 34 233 134 C 150 234 109 366 109 528 C 109 678 149 805 230 911 C 310 1016 425 1069 573 1069 Z M 573 1010 C 443 1010 345 963 278 869 C 211 775 178 662 178 528 C 178 390 211 274 279 182 C 346 89 444 43 573 43 C 703 43 800 91 866 187 C 932 283 965 396 965 528 C 965 664 931 778 864 871 C 797 963 700 1010 573 1010 Z M 249 1292 L 327 1370 C 353 1395 376 1412 395 1421 C 414 1429 433 1434 452 1434 C 473 1434 492 1429 509 1421 C 526 1413 545 1398 567 1378 L 636 1315 C 648 1304 660 1295 672 1289 C 683 1283 695 1280 708 1280 C 721 1280 735 1283 750 1291 C 764 1299 783 1314 806 1337 L 864 1393 L 905 1366 L 827 1288 C 801 1262 779 1245 759 1237 C 739 1229 720 1225 702 1225 C 681 1225 662 1229 645 1237 C 627 1245 608 1259 587 1280 L 520 1343 C 507 1353 494 1362 482 1368 C 470 1374 458 1378 446 1378 C 432 1378 418 1374 404 1366 C 389 1358 370 1343 348 1321 L 290 1266 L 249 1292 Z" unicode="õ" />
<glyph horiz-adv-x="1143" d="M 573 1069 C 715 1069 828 1018 910 917 C 992 815 1034 686 1034 528 C 1034 381 994 254 914 146 C 834 38 721 -16 573 -16 C 429 -16 316 34 233 134 C 150 234 109 366 109 528 C 109 678 149 805 230 911 C 310 1016 425 1069 573 1069 Z M 573 1010 C 443 1010 345 963 278 869 C 211 775 178 662 178 528 C 178 390 211 274 279 182 C 346 89 444 43 573 43 C 703 43 800 91 866 187 C 932 283 965 396 965 528 C 965 664 931 778 864 871 C 797 963 700 1010 573 1010 Z M 321 1446 L 395 1446 L 395 1272 L 321 1272 L 321 1446 Z M 751 1446 L 825 1446 L 825 1272 L 751 1272 L 751 1446 Z" unicode="ö" />
<glyph horiz-adv-x="1167" d="M 541 213 L 629 213 L 629 0 L 541 0 L 541 213 Z M 106 602 L 1061 602 L 1061 541 L 106 541 L 106 602 Z M 541 1141 L 629 1141 L 629 926 L 541 926 L 541 1141 Z" unicode="÷" />
<glyph horiz-adv-x="1143" d="M 868 1171 L 926 1171 L 834 989 C 898 943 947 879 982 799 C 1016 719 1034 628 1034 528 C 1034 381 994 254 914 146 C 834 38 721 -16 573 -16 C 533 -16 494 -12 458 -4 C 422 4 388 16 356 33 L 272 -137 L 217 -137 L 315 57 C 249 101 198 164 162 246 C 126 328 109 422 109 528 C 109 678 149 805 230 911 C 310 1016 425 1069 573 1069 C 613 1069 652 1064 689 1055 C 726 1046 761 1033 793 1016 L 868 1171 Z M 573 1010 C 443 1010 345 963 278 869 C 211 775 178 662 178 528 C 178 439 191 359 219 288 C 246 217 286 161 340 119 L 764 961 C 737 975 708 987 676 996 C 644 1005 609 1010 573 1010 Z M 965 528 C 965 613 951 691 924 762 C 896 833 857 890 805 932 L 383 90 C 409 74 439 63 471 55 C 503 47 537 43 573 43 C 703 43 800 91 866 187 C 932 283 965 396 965 528 Z" unicode="ø" />
<glyph horiz-adv-x="1133" d="M 164 1053 L 231 1053 L 231 369 C 231 315 237 268 250 228 C 262 188 282 155 309 129 C 335 102 368 81 408 66 C 448 50 493 43 545 43 C 659 43 745 74 805 136 C 865 198 895 243 895 272 L 895 1053 L 963 1053 L 963 0 L 897 0 L 897 184 C 861 118 809 69 743 35 C 676 1 607 -16 535 -16 C 475 -16 422 -6 376 11 C 329 29 290 54 258 86 C 226 118 203 157 187 205 C 171 252 164 309 164 377 L 164 1053 Z M 345 1530 L 415 1530 L 661 1255 L 661 1231 L 628 1231 L 345 1499 L 345 1530 Z" unicode="ù" />
<glyph horiz-adv-x="1133" d="M 164 1053 L 231 1053 L 231 369 C 231 315 237 268 250 228 C 262 188 282 155 309 129 C 335 102 368 81 408 66 C 448 50 493 43 545 43 C 659 43 745 74 805 136 C 865 198 895 243 895 272 L 895 1053 L 963 1053 L 963 0 L 897 0 L 897 184 C 861 118 809 69 743 35 C 676 1 607 -16 535 -16 C 475 -16 422 -6 376 11 C 329 29 290 54 258 86 C 226 118 203 157 187 205 C 171 252 164 309 164 377 L 164 1053 Z M 749 1530 L 820 1530 L 820 1499 L 536 1231 L 503 1231 L 503 1255 L 749 1530 Z" unicode="ú" />
<glyph horiz-adv-x="1133" d="M 164 1053 L 231 1053 L 231 369 C 231 315 237 268 250 228 C 262 188 282 155 309 129 C 335 102 368 81 408 66 C 448 50 493 43 545 43 C 659 43 745 74 805 136 C 865 198 895 243 895 272 L 895 1053 L 963 1053 L 963 0 L 897 0 L 897 184 C 861 118 809 69 743 35 C 676 1 607 -16 535 -16 C 475 -16 422 -6 376 11 C 329 29 290 54 258 86 C 226 118 203 157 187 205 C 171 252 164 309 164 377 L 164 1053 Z M 552 1530 L 609 1530 L 841 1253 L 841 1231 L 802 1231 L 585 1473 L 579 1473 L 362 1231 L 325 1231 L 325 1253 L 552 1530 Z" unicode="û" />
<glyph horiz-adv-x="1133" d="M 164 1053 L 231 1053 L 231 369 C 231 315 237 268 250 228 C 262 188 282 155 309 129 C 335 102 368 81 408 66 C 448 50 493 43 545 43 C 659 43 745 74 805 136 C 865 198 895 243 895 272 L 895 1053 L 963 1053 L 963 0 L 897 0 L 897 184 C 861 118 809 69 743 35 C 676 1 607 -16 535 -16 C 475 -16 422 -6 376 11 C 329 29 290 54 258 86 C 226 118 203 157 187 205 C 171 252 164 309 164 377 L 164 1053 Z M 331 1446 L 405 1446 L 405 1272 L 331 1272 L 331 1446 Z M 761 1446 L 835 1446 L 835 1272 L 761 1272 L 761 1446 Z" unicode="ü" />
<glyph horiz-adv-x="879" d="M 6 1053 L 82 1053 L 426 127 L 440 72 L 446 72 L 463 127 L 791 1053 L 866 1053 L 426 -152 C 397 -229 362 -299 321 -361 C 280 -423 222 -455 147 -455 C 138 -455 130 -454 123 -453 C 116 -451 110 -449 106 -446 L 100 -397 C 178 -397 235 -374 269 -328 C 303 -282 333 -225 358 -156 L 410 -16 L 6 1053 Z M 608 1530 L 679 1530 L 679 1499 L 395 1231 L 362 1231 L 362 1255 L 608 1530 Z" unicode="ý" />
<glyph horiz-adv-x="1151" d="M 184 1507 L 252 1507 L 252 874 C 296 937 347 985 406 1019 C 465 1052 534 1069 612 1069 C 765 1069 875 1016 942 911 C 1008 806 1042 682 1042 539 C 1042 416 1012 293 954 169 C 895 45 780 -16 608 -16 C 538 -16 471 -2 406 25 C 341 53 290 102 252 172 L 252 -451 L 184 -451 L 184 1507 Z M 604 1010 C 487 1010 399 976 340 909 C 281 842 252 797 252 774 L 252 276 C 252 251 278 206 330 141 C 382 75 469 43 590 43 C 744 43 847 96 898 203 C 949 309 975 420 975 535 C 975 659 948 769 894 865 C 840 961 744 1010 604 1010 Z" unicode="þ" />
<glyph horiz-adv-x="879" d="M 6 1053 L 82 1053 L 426 127 L 440 72 L 446 72 L 463 127 L 791 1053 L 866 1053 L 426 -152 C 397 -229 362 -299 321 -361 C 280 -423 222 -455 147 -455 C 138 -455 130 -454 123 -453 C 116 -451 110 -449 106 -446 L 100 -397 C 178 -397 235 -374 269 -328 C 303 -282 333 -225 358 -156 L 410 -16 L 6 1053 Z M 190 1446 L 264 1446 L 264 1272 L 190 1272 L 190 1446 Z M 620 1446 L 694 1446 L 694 1272 L 620 1272 L 620 1446 Z" unicode="ÿ" />
<glyph horiz-adv-x="1006" d="M 1010 1516 L 999 1462 C 994 1464 985 1465 972 1467 C 959 1469 948 1470 940 1470 C 880 1470 836 1449 807 1408 C 778 1366 764 1313 764 1247 L 764 1053 L 1010 1053 L 1010 999 L 764 999 L 764 0 L 694 0 L 694 999 L 260 999 L 260 0 L 193 0 L 193 999 L 18 999 L 18 1053 L 193 1053 L 193 1245 C 193 1324 213 1391 254 1446 C 294 1500 353 1528 430 1528 C 448 1528 465 1527 479 1525 C 493 1523 503 1520 508 1516 L 496 1462 C 490 1464 481 1465 469 1467 C 456 1469 445 1470 436 1470 C 376 1470 332 1449 303 1408 C 274 1366 260 1313 260 1247 L 260 1053 L 694 1053 L 694 1245 C 694 1324 714 1391 756 1446 C 797 1500 856 1528 934 1528 C 952 1528 968 1527 982 1525 C 995 1523 1004 1520 1010 1516 Z" unicode="ﬀ" />
<glyph horiz-adv-x="940" d="M 508 1516 L 496 1462 C 490 1464 481 1465 469 1467 C 456 1469 445 1470 436 1470 C 376 1470 332 1449 303 1408 C 274 1366 260 1313 260 1247 L 260 1053 L 506 1053 L 506 999 L 260 999 L 260 0 L 193 0 L 193 999 L 18 999 L 18 1053 L 193 1053 L 193 1245 C 193 1324 213 1391 254 1446 C 294 1500 353 1528 430 1528 C 448 1528 465 1527 479 1525 C 493 1523 503 1520 508 1516 Z M 685 1053 L 753 1053 L 753 0 L 685 0 L 685 1053 Z M 679 1507 L 759 1507 L 759 1321 L 679 1321 L 679 1507 Z" unicode="ﬁ" />
<glyph horiz-adv-x="940" d="M 508 1516 L 496 1462 C 490 1464 481 1465 469 1467 C 456 1469 445 1470 436 1470 C 376 1470 332 1449 303 1408 C 274 1366 260 1313 260 1247 L 260 1053 L 506 1053 L 506 999 L 260 999 L 260 0 L 193 0 L 193 999 L 18 999 L 18 1053 L 193 1053 L 193 1245 C 193 1324 213 1391 254 1446 C 294 1500 353 1528 430 1528 C 448 1528 465 1527 479 1525 C 493 1523 503 1520 508 1516 Z M 685 1507 L 753 1507 L 753 0 L 685 0 L 685 1507 Z" unicode="ﬂ" />
<glyph horiz-adv-x="598" d="M 299 776 C 360 776 409 758 445 722 C 481 686 500 638 500 578 C 500 518 481 469 445 433 C 409 397 360 379 299 379 C 239 379 190 397 154 433 C 118 469 100 518 100 578 C 100 638 118 686 154 722 C 190 758 239 776 299 776 Z" unicode="•" />
<glyph horiz-adv-x="1442" d="M 1010 1516 L 999 1462 C 994 1464 985 1465 972 1467 C 959 1469 948 1470 940 1470 C 880 1470 836 1449 807 1408 C 778 1366 764 1313 764 1247 L 764 1053 L 1010 1053 L 1010 999 L 764 999 L 764 0 L 694 0 L 694 999 L 260 999 L 260 0 L 193 0 L 193 999 L 18 999 L 18 1053 L 193 1053 L 193 1245 C 193 1324 213 1391 254 1446 C 294 1500 353 1528 430 1528 C 448 1528 465 1527 479 1525 C 493 1523 503 1520 508 1516 L 496 1462 C 490 1464 481 1465 469 1467 C 456 1469 445 1470 436 1470 C 376 1470 332 1449 303 1408 C 274 1366 260 1313 260 1247 L 260 1053 L 694 1053 L 694 1245 C 694 1324 714 1391 756 1446 C 797 1500 856 1528 934 1528 C 952 1528 968 1527 982 1525 C 995 1523 1004 1520 1010 1516 Z M 1190 1507 L 1257 1507 L 1257 0 L 1190 0 L 1190 1507 Z" unicode="ﬄ" />
<glyph horiz-adv-x="766" d="" unicode="₂" />
<glyph horiz-adv-x="840" d="" unicode="˘" />
<glyph horiz-adv-x="1167" d="" unicode="ℓ" />
<glyph horiz-adv-x="1626" d="" unicode="℮" />
<glyph horiz-adv-x="840" d="" unicode="˙" />
<glyph horiz-adv-x="791" d="" unicode="⁸" />
<glyph horiz-adv-x="840" d="M 205 1434 C 205 1490 226 1539 268 1580 C 310 1621 362 1642 422 1642 C 482 1642 532 1621 574 1580 C 616 1539 637 1490 637 1434 C 637 1376 616 1328 574 1288 C 532 1248 482 1229 422 1229 C 362 1229 310 1248 268 1288 C 226 1328 205 1376 205 1434 Z M 252 1434 C 252 1388 268 1350 302 1318 C 335 1286 375 1270 422 1270 C 468 1270 508 1286 541 1318 C 573 1350 590 1388 590 1434 C 590 1480 573 1519 541 1552 C 508 1585 468 1602 422 1602 C 375 1602 335 1585 302 1552 C 268 1519 252 1480 252 1434 Z" unicode="˚" />
<glyph horiz-adv-x="2497" d="M 416 1376 C 532 1376 614 1338 662 1264 C 710 1189 735 1101 735 999 C 735 875 708 777 654 707 C 600 637 520 602 416 602 C 295 602 211 643 165 726 C 119 809 96 899 96 997 C 96 1122 123 1216 177 1280 C 231 1344 311 1376 416 1376 Z M 416 1325 C 324 1325 257 1295 217 1236 C 176 1177 156 1097 156 997 C 156 919 173 842 209 766 C 244 690 313 653 416 653 C 508 653 575 685 615 751 C 655 817 676 899 676 999 C 676 1082 657 1157 620 1224 C 582 1291 514 1325 416 1325 Z M 1325 762 C 1441 762 1524 724 1572 650 C 1620 575 1645 487 1645 385 C 1645 260 1617 163 1563 93 C 1509 23 1429 -12 1325 -12 C 1204 -12 1121 29 1075 112 C 1029 194 1006 285 1006 383 C 1006 508 1033 602 1087 666 C 1141 730 1220 762 1325 762 Z M 1325 711 C 1233 711 1167 681 1126 622 C 1085 563 1065 483 1065 383 C 1065 304 1082 227 1118 152 C 1153 76 1222 39 1325 39 C 1416 39 1482 71 1523 137 C 1564 202 1585 285 1585 385 C 1585 468 1566 543 1529 610 C 1492 677 1424 711 1325 711 Z M 2077 762 C 2193 762 2275 724 2323 650 C 2371 575 2396 487 2396 385 C 2396 260 2369 163 2315 93 C 2261 23 2181 -12 2077 -12 C 1956 -12 1872 29 1826 112 C 1780 194 1757 285 1757 383 C 1757 508 1784 602 1838 666 C 1892 730 1972 762 2077 762 Z M 2077 711 C 1985 711 1918 681 1878 622 C 1837 562 1817 483 1817 383 C 1817 303 1834 226 1870 150 C 1906 74 1975 37 2077 37 C 2169 37 2236 69 2276 135 C 2316 200 2337 283 2337 383 C 2337 467 2318 543 2281 610 C 2244 677 2176 711 2077 711 Z M 1233 1364 L 1292 1364 L 516 0 L 457 0 L 1233 1364 Z" unicode="‰" />
<glyph horiz-adv-x="1325" d="M 608 1446 L 684 1446 L 895 1024 L 901 1024 L 1112 1446 L 1186 1446 L 1186 860 L 1141 860 L 1141 1372 L 1143 1405 L 1139 1405 L 1126 1372 L 924 971 L 870 971 L 668 1372 L 657 1405 L 653 1405 L 653 860 L 608 860 L 608 1446 Z M 72 1446 L 502 1446 L 502 1407 L 309 1407 L 309 860 L 260 860 L 260 1407 L 72 1407 L 72 1446 Z" unicode="™" />
<glyph horiz-adv-x="840" d="" unicode="˛" />
<glyph horiz-adv-x="1585" d="" unicode="Ω" />
<glyph horiz-adv-x="840" d="M 96 1292 L 174 1370 C 200 1395 223 1412 242 1421 C 261 1429 280 1434 299 1434 C 320 1434 339 1429 356 1421 C 373 1413 392 1398 414 1378 L 483 1315 C 495 1304 507 1295 519 1289 C 530 1283 542 1280 555 1280 C 568 1280 582 1283 597 1291 C 611 1299 630 1314 653 1337 L 711 1393 L 752 1366 L 674 1288 C 648 1262 626 1245 606 1237 C 586 1229 567 1225 549 1225 C 528 1225 509 1229 492 1237 C 474 1245 455 1259 434 1280 L 367 1343 C 354 1353 341 1362 329 1368 C 317 1374 305 1378 293 1378 C 279 1378 265 1374 251 1366 C 236 1358 217 1343 195 1321 L 137 1266 L 96 1292 Z" unicode="˜" />
<glyph horiz-adv-x="756" d="" unicode="⁴" />
<glyph horiz-adv-x="840" d="" unicode="˝" />
<glyph horiz-adv-x="436" d="" unicode="ı" />
<glyph horiz-adv-x="764" d="" unicode="⁹" />
<glyph horiz-adv-x="1102" d="" unicode="Ł" />
<glyph horiz-adv-x="461" d="" unicode="ł" />
<glyph horiz-adv-x="840" d="M 389 1530 L 446 1530 L 678 1253 L 678 1231 L 639 1231 L 422 1473 L 416 1473 L 199 1231 L 162 1231 L 162 1253 L 389 1530 Z" unicode="ˆ" />
<glyph horiz-adv-x="2451" d="M 1350 1446 L 2292 1446 L 2292 1386 L 1421 1386 L 1421 784 L 2200 784 L 2200 725 L 1421 725 L 1421 59 L 2312 59 L 2312 0 L 1350 0 L 1350 414 C 1309 268 1235 159 1129 87 C 1022 15 902 -20 770 -20 C 588 -20 434 42 307 168 C 180 293 117 479 117 725 C 117 971 180 1157 306 1281 C 432 1405 587 1468 770 1468 C 902 1468 1022 1432 1128 1361 C 1234 1289 1308 1180 1350 1034 L 1350 1446 Z M 770 1409 C 598 1409 459 1349 351 1230 C 243 1111 190 943 190 725 C 190 512 243 344 351 222 C 458 100 598 39 770 39 C 941 39 1081 98 1189 217 C 1297 335 1352 505 1352 725 C 1352 939 1298 1107 1191 1228 C 1083 1348 943 1409 770 1409 Z" unicode="Œ" />
<glyph horiz-adv-x="1970" d="M 573 1069 C 683 1069 777 1035 853 968 C 929 900 977 811 999 700 C 1023 811 1075 900 1154 968 C 1232 1035 1329 1069 1444 1069 C 1580 1069 1684 1026 1758 941 C 1831 855 1868 746 1868 614 C 1868 603 1867 592 1866 581 C 1865 569 1864 552 1862 530 L 1032 530 C 1030 390 1063 273 1133 181 C 1202 89 1314 43 1468 43 C 1536 43 1598 53 1654 75 C 1709 96 1761 125 1810 162 L 1837 106 C 1786 66 1731 36 1671 15 C 1611 -5 1543 -16 1468 -16 C 1334 -16 1228 16 1148 81 C 1068 146 1017 232 995 338 C 971 236 923 151 849 84 C 775 17 683 -16 573 -16 C 429 -16 316 34 233 134 C 150 234 109 366 109 528 C 109 678 149 805 230 911 C 310 1016 425 1069 573 1069 Z M 573 1010 C 443 1010 345 963 278 869 C 211 775 178 662 178 528 C 178 390 211 274 279 182 C 346 89 444 43 573 43 C 703 43 800 91 866 187 C 932 283 965 396 965 528 C 965 664 931 778 864 871 C 797 963 700 1010 573 1010 Z M 1442 1012 C 1325 1012 1231 973 1159 895 C 1087 817 1045 714 1034 586 L 1796 586 C 1805 706 1778 807 1716 889 C 1653 971 1562 1012 1442 1012 Z" unicode="œ" />
<glyph horiz-adv-x="1806" d="" unicode="⅔" />
<glyph horiz-adv-x="545" d="M 338 887 L 414 887 L 113 580 L 414 268 L 340 268 L 59 555 L 59 602 L 338 887 Z" unicode="‹" />
<glyph horiz-adv-x="1563" d="" unicode="⅛" />
<glyph horiz-adv-x="1831" d="" unicode="⅜" />
<glyph horiz-adv-x="610" d="M 197 887 L 272 887 L 551 602 L 551 555 L 270 268 L 197 268 L 498 580 L 197 887 Z" unicode="›" />
<glyph horiz-adv-x="1688" d="" unicode="⅞" />
<glyph horiz-adv-x="1108" d="M 956 1401 L 940 1339 C 890 1357 834 1374 773 1388 C 712 1402 648 1409 580 1409 C 466 1409 372 1384 298 1336 C 223 1287 186 1212 186 1110 C 186 995 229 917 315 877 C 401 836 485 804 569 782 C 696 748 806 701 899 641 C 991 581 1038 489 1038 365 C 1038 246 992 150 901 78 C 809 5 682 -31 518 -31 C 448 -31 375 -24 299 -12 C 222 0 154 20 94 49 L 111 111 C 169 84 235 64 310 50 C 385 36 456 29 524 29 C 655 29 762 57 844 113 C 926 169 967 249 967 352 C 967 464 922 546 834 598 C 745 650 649 689 545 717 C 457 740 364 775 264 823 C 164 871 115 963 115 1100 C 115 1220 158 1312 245 1374 C 332 1436 445 1468 584 1468 C 658 1468 725 1461 787 1447 C 849 1433 905 1418 956 1401 Z M 577 1603 L 520 1603 L 293 1879 L 293 1902 L 330 1902 L 547 1660 L 553 1660 L 770 1902 L 809 1902 L 809 1879 L 577 1603 Z" unicode="Š" />
<glyph horiz-adv-x="889" d="M 100 33 L 115 90 C 137 76 178 62 237 47 C 296 32 356 25 418 25 C 502 25 576 43 639 81 C 701 119 733 178 733 260 C 733 338 702 394 642 428 C 581 461 502 492 406 522 C 339 542 275 573 214 615 C 153 657 123 721 123 809 C 123 893 154 958 217 1002 C 279 1046 362 1069 465 1069 C 511 1069 561 1064 613 1054 C 665 1044 709 1031 745 1014 L 729 954 C 692 971 649 985 601 997 C 552 1008 505 1014 461 1014 C 381 1014 316 997 265 964 C 213 930 188 881 188 815 C 188 747 213 695 263 661 C 313 627 378 597 459 573 C 538 548 615 517 689 480 C 763 442 801 372 801 268 C 801 165 762 89 686 41 C 609 -6 520 -31 420 -31 C 352 -31 287 -23 223 -7 C 159 8 118 21 100 33 Z M 474 1231 L 417 1231 L 190 1507 L 190 1530 L 227 1530 L 444 1288 L 450 1288 L 667 1530 L 706 1530 L 706 1507 L 474 1231 Z" unicode="š" />
<glyph horiz-adv-x="705" d="" unicode="∫" />
<glyph horiz-adv-x="840" d="M 446 1231 L 389 1231 L 162 1507 L 162 1530 L 199 1530 L 416 1288 L 422 1288 L 639 1530 L 678 1530 L 678 1507 L 446 1231 Z" unicode="ˇ" />
<glyph horiz-adv-x="684" d="" unicode="⁷" />
<glyph horiz-adv-x="1116" d="M 25 1446 L 111 1446 L 561 604 L 1012 1446 L 1092 1446 L 594 537 L 594 0 L 522 0 L 522 537 L 25 1446 Z M 309 1818 L 383 1818 L 383 1644 L 309 1644 L 309 1818 Z M 739 1818 L 813 1818 L 813 1644 L 739 1644 L 739 1818 Z" unicode="Ÿ" />
<glyph horiz-adv-x="2048" d="M 393 219 L 481 219 L 481 0 L 393 0 L 393 219 Z M 981 219 L 1069 219 L 1069 0 L 981 0 L 981 219 Z M 1569 219 L 1655 219 L 1655 0 L 1569 0 L 1569 219 Z" unicode="…" />
<glyph horiz-adv-x="1260" d="M 170 1446 L 1153 1446 L 1153 1393 L 186 59 L 1163 59 L 1163 0 L 96 0 L 96 53 L 1063 1386 L 170 1386 L 170 1446 Z M 667 1603 L 610 1603 L 383 1879 L 383 1902 L 420 1902 L 637 1660 L 643 1660 L 860 1902 L 899 1902 L 899 1879 L 667 1603 Z" unicode="Ž" />
<glyph horiz-adv-x="907" d="M 125 1053 L 823 1053 L 823 1008 L 158 53 L 840 53 L 840 0 L 76 0 L 76 47 L 741 999 L 125 999 L 125 1053 Z M 503 1231 L 446 1231 L 219 1507 L 219 1530 L 256 1530 L 473 1288 L 479 1288 L 696 1530 L 735 1530 L 735 1507 L 503 1231 Z" unicode="ž" />
<glyph horiz-adv-x="1499" d="" unicode="√" />
<glyph horiz-adv-x="1167" d="" unicode="≥" />
<glyph horiz-adv-x="1442" d="M 1010 1516 L 999 1462 C 994 1464 985 1465 972 1467 C 959 1469 948 1470 940 1470 C 880 1470 836 1449 807 1408 C 778 1366 764 1313 764 1247 L 764 1053 L 1010 1053 L 1010 999 L 764 999 L 764 0 L 694 0 L 694 999 L 260 999 L 260 0 L 193 0 L 193 999 L 18 999 L 18 1053 L 193 1053 L 193 1245 C 193 1324 213 1391 254 1446 C 294 1500 353 1528 430 1528 C 448 1528 465 1527 479 1525 C 493 1523 503 1520 508 1516 L 496 1462 C 490 1464 481 1465 469 1467 C 456 1469 445 1470 436 1470 C 376 1470 332 1449 303 1408 C 274 1366 260 1313 260 1247 L 260 1053 L 694 1053 L 694 1245 C 694 1324 714 1391 756 1446 C 797 1500 856 1528 934 1528 C 952 1528 968 1527 982 1525 C 995 1523 1004 1520 1010 1516 Z M 1190 1053 L 1257 1053 L 1257 0 L 1190 0 L 1190 1053 Z M 1184 1507 L 1264 1507 L 1264 1321 L 1184 1321 L 1184 1507 Z" unicode="ﬃ" />
<glyph horiz-adv-x="1044" d="M 199 725 L 483 725 L 549 1090 C 563 1169 596 1236 646 1290 C 696 1344 760 1372 838 1372 C 854 1372 870 1371 884 1369 C 898 1367 907 1364 911 1360 L 891 1307 C 886 1309 877 1310 864 1312 C 851 1314 840 1315 831 1315 C 773 1315 725 1294 688 1253 C 651 1211 627 1158 616 1092 L 551 725 L 874 725 L 874 672 L 541 672 L 393 -170 C 379 -249 346 -316 296 -371 C 245 -425 181 -453 104 -453 C 87 -453 72 -452 58 -450 C 44 -448 35 -445 31 -442 L 53 -389 C 57 -389 65 -390 78 -392 C 90 -394 101 -395 111 -395 C 169 -395 216 -374 252 -333 C 288 -292 313 -239 326 -174 L 473 672 L 199 672 L 199 725 Z" unicode="ƒ" />
<glyph horiz-adv-x="297" d="" unicode="⁄" />
<glyph horiz-adv-x="418" d="" unicode="⁽" />
<glyph horiz-adv-x="1167" d="" unicode="≈" />
<glyph horiz-adv-x="1210" d="" unicode="π" />
<glyph horiz-adv-x="764" d="" unicode="⁶" />
<glyph horiz-adv-x="745" d="" unicode="⁵" />
<glyph horiz-adv-x="1167" d="" unicode="≠" />
<glyph horiz-adv-x="1288" d="" unicode="◊" />
<glyph horiz-adv-x="418" d="" unicode="⁾" />
<glyph horiz-adv-x="897" d="M 416 1415 L 483 1415 L 483 1368 L 465 1124 L 471 1120 L 690 1137 L 737 1137 L 737 1069 L 690 1069 L 471 1087 L 465 1081 L 483 362 L 483 315 L 416 315 L 416 362 L 434 1081 L 428 1087 L 205 1069 L 158 1069 L 158 1137 L 205 1137 L 428 1120 L 434 1124 L 416 1368 L 416 1415 Z" unicode="†" />
<glyph horiz-adv-x="1518" d="" unicode="⅓" />
<glyph horiz-adv-x="1831" d="" unicode="⅝" />
</font>
</defs>
</svg>
